<svg width="388" height="74" viewBox="0 0 388 74" fill="none" xmlns="http://www.w3.org/2000/svg">
<circle cx="29" cy="20.9714" r="20" fill="#0D6098"/>
<path d="M25.5487 28.4714C25.1327 28.4714 24.8047 28.3594 24.5647 28.1354C24.3407 27.8954 24.2287 27.5754 24.2287 27.1754C24.2287 26.7594 24.3407 26.4474 24.5647 26.2394C24.8047 26.0314 25.1327 25.9274 25.5487 25.9274H28.2367V14.1434H29.7247L26.1967 16.2794C25.8927 16.4554 25.6047 16.5274 25.3327 16.4954C25.0767 16.4474 24.8527 16.3354 24.6607 16.1594C24.4847 15.9674 24.3647 15.7434 24.3007 15.4874C24.2367 15.2314 24.2527 14.9754 24.3487 14.7194C24.4607 14.4474 24.6687 14.2234 24.9727 14.0474L28.2847 12.0554C28.6047 11.8634 28.9247 11.7034 29.2447 11.5754C29.5647 11.4314 29.8607 11.3594 30.1327 11.3594C30.4687 11.3594 30.7487 11.4554 30.9727 11.6474C31.1967 11.8234 31.3087 12.1194 31.3087 12.5354V25.9274H33.7567C34.1727 25.9274 34.4927 26.0314 34.7167 26.2394C34.9567 26.4474 35.0767 26.7594 35.0767 27.1754C35.0767 27.5914 34.9567 27.9114 34.7167 28.1354C34.4927 28.3594 34.1727 28.4714 33.7567 28.4714H25.5487Z" fill="white"/>
<circle cx="353.5" cy="20.9714" r="19.5" stroke="#0D6098"/>
<path d="M353.169 28.7114C352.305 28.7114 351.409 28.5994 350.481 28.3754C349.553 28.1514 348.745 27.8154 348.057 27.3674C347.737 27.1594 347.521 26.9194 347.409 26.6474C347.297 26.3754 347.265 26.1194 347.313 25.8794C347.377 25.6234 347.497 25.4074 347.673 25.2314C347.865 25.0554 348.097 24.9514 348.369 24.9194C348.657 24.8874 348.969 24.9594 349.305 25.1354C349.961 25.4874 350.593 25.7434 351.201 25.9034C351.809 26.0474 352.433 26.1194 353.073 26.1194C353.777 26.1194 354.369 26.0234 354.849 25.8314C355.329 25.6394 355.689 25.3514 355.929 24.9674C356.185 24.5834 356.313 24.1194 356.313 23.5754C356.313 22.7754 356.041 22.1834 355.497 21.7994C354.969 21.3994 354.193 21.1994 353.169 21.1994H351.633C351.185 21.1994 350.841 21.0874 350.601 20.8634C350.377 20.6394 350.265 20.3274 350.265 19.9274C350.265 19.5274 350.377 19.2154 350.601 18.9914C350.841 18.7674 351.185 18.6554 351.633 18.6554H352.881C353.489 18.6554 354.009 18.5594 354.441 18.3674C354.873 18.1594 355.209 17.8714 355.449 17.5034C355.689 17.1354 355.809 16.6874 355.809 16.1594C355.809 15.4234 355.561 14.8634 355.065 14.4794C354.585 14.0954 353.881 13.9034 352.953 13.9034C352.361 13.9034 351.801 13.9754 351.273 14.1194C350.761 14.2474 350.193 14.4954 349.569 14.8634C349.281 15.0394 349.001 15.1114 348.729 15.0794C348.473 15.0474 348.257 14.9434 348.081 14.7674C347.905 14.5914 347.785 14.3834 347.721 14.1434C347.657 13.8874 347.673 13.6314 347.769 13.3754C347.865 13.1034 348.065 12.8714 348.369 12.6794C349.057 12.2314 349.817 11.8954 350.649 11.6714C351.481 11.4314 352.337 11.3114 353.217 11.3114C354.385 11.3114 355.385 11.4954 356.217 11.8634C357.049 12.2154 357.681 12.7274 358.113 13.3994C358.561 14.0554 358.785 14.8554 358.785 15.7994C358.785 16.4714 358.657 17.0874 358.401 17.6474C358.145 18.1914 357.785 18.6554 357.321 19.0394C356.857 19.4234 356.297 19.6954 355.641 19.8554V19.5674C356.793 19.7594 357.689 20.2394 358.329 21.0074C358.969 21.7594 359.289 22.7034 359.289 23.8394C359.289 24.8314 359.041 25.6954 358.545 26.4314C358.049 27.1674 357.345 27.7354 356.433 28.1354C355.521 28.5194 354.433 28.7114 353.169 28.7114Z" fill="#0D6098"/>
<circle cx="194" cy="20.9714" r="19.5" stroke="#0D6098"/>
<path d="M189.997 28.4714C189.485 28.4714 189.109 28.3594 188.869 28.1354C188.645 27.8954 188.533 27.5514 188.533 27.1034C188.533 26.8314 188.605 26.5674 188.749 26.3114C188.893 26.0554 189.101 25.7834 189.373 25.4954L194.197 20.3594C194.933 19.5914 195.461 18.8954 195.781 18.2714C196.101 17.6314 196.261 16.9914 196.261 16.3514C196.261 15.5514 196.005 14.9434 195.493 14.5274C194.997 14.1114 194.269 13.9034 193.309 13.9034C192.765 13.9034 192.221 13.9834 191.677 14.1434C191.133 14.2874 190.581 14.5434 190.021 14.9114C189.733 15.1034 189.461 15.1834 189.205 15.1514C188.965 15.1194 188.749 15.0154 188.557 14.8394C188.381 14.6634 188.261 14.4474 188.197 14.1914C188.133 13.9354 188.141 13.6794 188.221 13.4234C188.317 13.1514 188.509 12.9194 188.797 12.7274C189.485 12.2634 190.253 11.9114 191.101 11.6714C191.965 11.4314 192.829 11.3114 193.693 11.3114C194.909 11.3114 195.933 11.4954 196.765 11.8634C197.597 12.2314 198.229 12.7674 198.661 13.4714C199.093 14.1754 199.309 15.0314 199.309 16.0394C199.309 16.7114 199.197 17.3674 198.973 18.0074C198.765 18.6474 198.437 19.2954 197.989 19.9514C197.557 20.6074 196.989 21.3034 196.285 22.0394L191.773 26.7434V25.9274H198.829C199.261 25.9274 199.589 26.0314 199.813 26.2394C200.037 26.4474 200.149 26.7594 200.149 27.1754C200.149 27.5914 200.037 27.9114 199.813 28.1354C199.589 28.3594 199.261 28.4714 198.829 28.4714H189.997Z" fill="#0D6098"/>
<path d="M5.76375 68.1686C4.73708 68.1686 3.85508 67.9632 3.11775 67.5526C2.38975 67.1326 1.82975 66.5446 1.43775 65.7886C1.04575 65.0232 0.84975 64.1226 0.84975 63.0866C0.84975 62.3119 0.96175 61.6166 1.18575 61.0006C1.40975 60.3752 1.73175 59.8432 2.15175 59.4046C2.57175 58.9566 3.08508 58.6159 3.69175 58.3826C4.30775 58.1399 4.99842 58.0186 5.76375 58.0186C6.27708 58.0186 6.78108 58.0839 7.27575 58.2146C7.77042 58.3452 8.20442 58.5319 8.57775 58.7746C8.77375 58.8959 8.90442 59.0452 8.96975 59.2226C9.03508 59.3906 9.04908 59.5586 9.01175 59.7266C8.97442 59.8852 8.89508 60.0206 8.77375 60.1326C8.66175 60.2446 8.51708 60.3099 8.33975 60.3286C8.17175 60.3379 7.98508 60.2772 7.77975 60.1466C7.49042 59.9599 7.17775 59.8246 6.84175 59.7406C6.50575 59.6566 6.16508 59.6146 5.81975 59.6146C5.15708 59.6146 4.59708 59.7499 4.13975 60.0206C3.68242 60.2912 3.33708 60.6832 3.10375 61.1966C2.87042 61.7099 2.75375 62.3399 2.75375 63.0866C2.75375 63.8239 2.87042 64.4539 3.10375 64.9766C3.33708 65.4992 3.68242 65.8959 4.13975 66.1666C4.59708 66.4372 5.15708 66.5726 5.81975 66.5726C6.17442 66.5726 6.52442 66.5306 6.86975 66.4466C7.21508 66.3532 7.54175 66.2132 7.84975 66.0266C8.05508 65.9052 8.23708 65.8539 8.39575 65.8726C8.56375 65.8819 8.70375 65.9379 8.81575 66.0406C8.92775 66.1432 9.00242 66.2739 9.03975 66.4326C9.07708 66.5819 9.06775 66.7406 9.01175 66.9086C8.95575 67.0672 8.84375 67.2072 8.67575 67.3286C8.30242 67.5992 7.85442 67.8092 7.33175 67.9586C6.81842 68.0986 6.29575 68.1686 5.76375 68.1686ZM11.3874 68.1406C11.1074 68.1406 10.8927 68.0659 10.7434 67.9166C10.594 67.7579 10.5194 67.5339 10.5194 67.2446V58.9286C10.5194 58.6392 10.594 58.4199 10.7434 58.2706C10.8927 58.1212 11.1074 58.0466 11.3874 58.0466C11.6674 58.0466 11.882 58.1212 12.0314 58.2706C12.19 58.4199 12.2694 58.6392 12.2694 58.9286V62.5546H12.0734C12.2787 62.0599 12.596 61.6866 13.0254 61.4346C13.464 61.1732 13.9587 61.0426 14.5094 61.0426C15.06 61.0426 15.5127 61.1452 15.8674 61.3506C16.222 61.5559 16.488 61.8686 16.6654 62.2886C16.8427 62.6992 16.9314 63.2219 16.9314 63.8566V67.2446C16.9314 67.5339 16.8567 67.7579 16.7074 67.9166C16.558 68.0659 16.3434 68.1406 16.0634 68.1406C15.7834 68.1406 15.564 68.0659 15.4054 67.9166C15.256 67.7579 15.1814 67.5339 15.1814 67.2446V63.9406C15.1814 63.4086 15.0787 63.0212 14.8734 62.7786C14.6774 62.5359 14.3694 62.4146 13.9494 62.4146C13.436 62.4146 13.0254 62.5779 12.7174 62.9046C12.4187 63.2219 12.2694 63.6466 12.2694 64.1786V67.2446C12.2694 67.8419 11.9754 68.1406 11.3874 68.1406ZM22.0828 68.1686C21.3082 68.1686 20.6408 68.0239 20.0808 67.7346C19.5208 67.4452 19.0868 67.0346 18.7788 66.5026C18.4802 65.9706 18.3308 65.3406 18.3308 64.6126C18.3308 63.9032 18.4755 63.2826 18.7648 62.7506C19.0635 62.2186 19.4695 61.8032 19.9828 61.5046C20.5055 61.1966 21.0982 61.0426 21.7608 61.0426C22.2462 61.0426 22.6802 61.1219 23.0628 61.2806C23.4548 61.4392 23.7862 61.6679 24.0568 61.9666C24.3368 62.2652 24.5468 62.6292 24.6868 63.0586C24.8362 63.4786 24.9108 63.9546 24.9108 64.4866C24.9108 64.6546 24.8502 64.7852 24.7288 64.8786C24.6168 64.9626 24.4535 65.0046 24.2388 65.0046H19.7448V63.9966H23.6788L23.4548 64.2066C23.4548 63.7772 23.3895 63.4179 23.2588 63.1286C23.1375 62.8392 22.9555 62.6199 22.7128 62.4706C22.4795 62.3119 22.1855 62.2326 21.8308 62.2326C21.4388 62.2326 21.1028 62.3259 20.8228 62.5126C20.5522 62.6899 20.3422 62.9466 20.1928 63.2826C20.0528 63.6092 19.9828 64.0012 19.9828 64.4586V64.5566C19.9828 65.3219 20.1602 65.8959 20.5148 66.2786C20.8788 66.6519 21.4108 66.8386 22.1108 66.8386C22.3535 66.8386 22.6242 66.8106 22.9228 66.7546C23.2308 66.6892 23.5202 66.5819 23.7908 66.4326C23.9868 66.3206 24.1595 66.2739 24.3088 66.2926C24.4582 66.3019 24.5748 66.3532 24.6588 66.4466C24.7522 66.5399 24.8082 66.6566 24.8268 66.7966C24.8455 66.9272 24.8175 67.0626 24.7428 67.2026C24.6775 67.3426 24.5608 67.4639 24.3928 67.5666C24.0662 67.7719 23.6882 67.9259 23.2588 68.0286C22.8388 68.1219 22.4468 68.1686 22.0828 68.1686ZM29.4607 68.1686C28.7421 68.1686 28.1167 68.0239 27.5847 67.7346C27.0527 67.4359 26.6421 67.0159 26.3527 66.4746C26.0634 65.9332 25.9187 65.2986 25.9187 64.5706C25.9187 64.0199 25.9981 63.5299 26.1567 63.1006C26.3247 62.6619 26.5627 62.2932 26.8707 61.9946C27.1787 61.6866 27.5521 61.4532 27.9907 61.2946C28.4294 61.1266 28.9194 61.0426 29.4607 61.0426C29.7687 61.0426 30.1001 61.0846 30.4547 61.1686C30.8187 61.2526 31.1594 61.3926 31.4767 61.5886C31.6261 61.6819 31.7241 61.7939 31.7707 61.9246C31.8174 62.0552 31.8267 62.1906 31.7987 62.3306C31.7707 62.4612 31.7101 62.5779 31.6167 62.6806C31.5327 62.7739 31.4254 62.8346 31.2947 62.8626C31.1641 62.8812 31.0194 62.8486 30.8607 62.7646C30.6554 62.6432 30.4454 62.5546 30.2307 62.4986C30.0161 62.4332 29.8107 62.4006 29.6147 62.4006C29.3067 62.4006 29.0361 62.4519 28.8027 62.5546C28.5694 62.6479 28.3687 62.7879 28.2007 62.9746C28.0421 63.1519 27.9207 63.3759 27.8367 63.6466C27.7527 63.9172 27.7107 64.2299 27.7107 64.5846C27.7107 65.2752 27.8741 65.8212 28.2007 66.2226C28.5367 66.6146 29.0081 66.8106 29.6147 66.8106C29.8107 66.8106 30.0114 66.7826 30.2167 66.7266C30.4314 66.6706 30.6461 66.5819 30.8607 66.4606C31.0194 66.3766 31.1594 66.3486 31.2807 66.3766C31.4114 66.4046 31.5187 66.4699 31.6027 66.5726C31.6867 66.6659 31.7381 66.7826 31.7567 66.9226C31.7754 67.0532 31.7567 67.1839 31.7007 67.3146C31.6541 67.4452 31.5607 67.5526 31.4207 67.6366C31.1127 67.8232 30.7861 67.9586 30.4407 68.0426C30.0954 68.1266 29.7687 68.1686 29.4607 68.1686ZM33.7682 68.1406C33.4882 68.1406 33.2736 68.0659 33.1242 67.9166C32.9749 67.7579 32.9002 67.5339 32.9002 67.2446V58.9286C32.9002 58.6392 32.9749 58.4199 33.1242 58.2706C33.2736 58.1212 33.4882 58.0466 33.7682 58.0466C34.0482 58.0466 34.2629 58.1212 34.4122 58.2706C34.5709 58.4199 34.6502 58.6392 34.6502 58.9286V64.0946H34.6782L36.9882 61.6586C37.1749 61.4719 37.3382 61.3272 37.4782 61.2246C37.6182 61.1219 37.8096 61.0706 38.0522 61.0706C38.2949 61.0706 38.4769 61.1359 38.5982 61.2666C38.7289 61.3879 38.7942 61.5372 38.7942 61.7146C38.7942 61.8919 38.7102 62.0692 38.5422 62.2466L36.1062 64.8226V64.0946L38.7802 66.9786C38.9482 67.1559 39.0229 67.3379 39.0042 67.5246C38.9949 67.7019 38.9202 67.8512 38.7802 67.9726C38.6402 68.0846 38.4629 68.1406 38.2482 68.1406C37.9869 68.1406 37.7769 68.0892 37.6182 67.9866C37.4689 67.8839 37.3009 67.7299 37.1142 67.5246L34.6782 64.9766H34.6502V67.2446C34.6502 67.8419 34.3562 68.1406 33.7682 68.1406ZM43.3914 68.1686C42.682 68.1686 42.066 68.0239 41.5434 67.7346C41.0207 67.4452 40.6147 67.0346 40.3254 66.5026C40.036 65.9612 39.8914 65.3266 39.8914 64.5986C39.8914 64.0479 39.9707 63.5579 40.1294 63.1286C40.2974 62.6899 40.5354 62.3166 40.8434 62.0086C41.1514 61.6912 41.52 61.4532 41.9494 61.2946C42.3787 61.1266 42.8594 61.0426 43.3914 61.0426C44.1007 61.0426 44.7167 61.1872 45.2394 61.4766C45.762 61.7659 46.168 62.1766 46.4574 62.7086C46.7467 63.2406 46.8914 63.8706 46.8914 64.5986C46.8914 65.1492 46.8074 65.6439 46.6394 66.0826C46.4807 66.5212 46.2474 66.8992 45.9394 67.2166C45.6314 67.5246 45.2627 67.7626 44.8334 67.9306C44.404 68.0892 43.9234 68.1686 43.3914 68.1686ZM43.3914 66.8386C43.7367 66.8386 44.04 66.7546 44.3014 66.5866C44.5627 66.4186 44.7634 66.1712 44.9034 65.8446C45.0527 65.5086 45.1274 65.0932 45.1274 64.5986C45.1274 63.8519 44.9687 63.2966 44.6514 62.9326C44.334 62.5592 43.914 62.3726 43.3914 62.3726C43.046 62.3726 42.7427 62.4566 42.4814 62.6246C42.22 62.7832 42.0147 63.0306 41.8654 63.3666C41.7254 63.6932 41.6554 64.1039 41.6554 64.5986C41.6554 65.3359 41.814 65.8959 42.1314 66.2786C42.4487 66.6519 42.8687 66.8386 43.3914 66.8386ZM50.8138 68.1686C50.2444 68.1686 49.7731 68.0659 49.3998 67.8606C49.0264 67.6459 48.7464 67.3286 48.5598 66.9086C48.3824 66.4886 48.2938 65.9659 48.2938 65.3406V61.9526C48.2938 61.6539 48.3684 61.4346 48.5178 61.2946C48.6671 61.1452 48.8818 61.0706 49.1618 61.0706C49.4418 61.0706 49.6564 61.1452 49.8058 61.2946C49.9644 61.4346 50.0438 61.6539 50.0438 61.9526V65.3686C50.0438 65.8539 50.1418 66.2132 50.3378 66.4466C50.5338 66.6799 50.8464 66.7966 51.2758 66.7966C51.7424 66.7966 52.1251 66.6379 52.4238 66.3206C52.7224 65.9939 52.8718 65.5646 52.8718 65.0326V61.9526C52.8718 61.6539 52.9464 61.4346 53.0958 61.2946C53.2451 61.1452 53.4598 61.0706 53.7398 61.0706C54.0198 61.0706 54.2344 61.1452 54.3838 61.2946C54.5424 61.4346 54.6218 61.6539 54.6218 61.9526V67.2446C54.6218 67.8419 54.3371 68.1406 53.7678 68.1406C53.4971 68.1406 53.2871 68.0659 53.1378 67.9166C52.9884 67.7579 52.9138 67.5339 52.9138 67.2446V66.1806L53.1098 66.6006C52.9138 67.1046 52.6151 67.4919 52.2138 67.7626C51.8218 68.0332 51.3551 68.1686 50.8138 68.1686ZM59.5792 68.1686C58.9725 68.1686 58.4639 68.0659 58.0532 67.8606C57.6519 67.6552 57.3532 67.3566 57.1572 66.9646C56.9612 66.5632 56.8632 66.0686 56.8632 65.4806V62.4986H56.1352C55.9112 62.4986 55.7385 62.4426 55.6172 62.3306C55.4959 62.2092 55.4352 62.0459 55.4352 61.8406C55.4352 61.6259 55.4959 61.4626 55.6172 61.3506C55.7385 61.2386 55.9112 61.1826 56.1352 61.1826H56.8632V59.9086C56.8632 59.6192 56.9379 59.3999 57.0872 59.2506C57.2459 59.1012 57.4652 59.0266 57.7452 59.0266C58.0252 59.0266 58.2399 59.1012 58.3892 59.2506C58.5385 59.3999 58.6132 59.6192 58.6132 59.9086V61.1826H60.0972C60.3212 61.1826 60.4939 61.2386 60.6152 61.3506C60.7365 61.4626 60.7972 61.6259 60.7972 61.8406C60.7972 62.0459 60.7365 62.2092 60.6152 62.3306C60.4939 62.4426 60.3212 62.4986 60.0972 62.4986H58.6132V65.3826C58.6132 65.8306 58.7112 66.1666 58.9072 66.3906C59.1032 66.6146 59.4205 66.7266 59.8592 66.7266C60.0179 66.7266 60.1579 66.7126 60.2792 66.6846C60.4005 66.6566 60.5079 66.6379 60.6012 66.6286C60.7132 66.6192 60.8065 66.6566 60.8812 66.7406C60.9559 66.8152 60.9932 66.9739 60.9932 67.2166C60.9932 67.4032 60.9605 67.5712 60.8952 67.7206C60.8392 67.8606 60.7319 67.9586 60.5732 68.0146C60.4519 68.0519 60.2932 68.0846 60.0972 68.1126C59.9012 68.1499 59.7285 68.1686 59.5792 68.1686Z" fill="#0D6098"/>
<path d="M325.864 68.1406C325.612 68.1406 325.402 68.0846 325.234 67.9726C325.076 67.8512 324.945 67.6739 324.842 67.4406L321.188 59.2366C321.086 59.0032 321.058 58.7979 321.104 58.6206C321.151 58.4432 321.249 58.3032 321.398 58.2006C321.548 58.0979 321.725 58.0466 321.93 58.0466C322.201 58.0466 322.402 58.1072 322.532 58.2286C322.672 58.3406 322.789 58.5132 322.882 58.7466L326.2 66.4326H325.598L328.902 58.7326C329.005 58.5086 329.126 58.3406 329.266 58.2286C329.406 58.1072 329.602 58.0466 329.854 58.0466C330.06 58.0466 330.228 58.0979 330.358 58.2006C330.498 58.3032 330.587 58.4432 330.624 58.6206C330.662 58.7979 330.629 59.0032 330.526 59.2366L326.872 67.4406C326.77 67.6739 326.639 67.8512 326.48 67.9726C326.331 68.0846 326.126 68.1406 325.864 68.1406ZM333.177 68.1686C332.682 68.1686 332.239 68.0752 331.847 67.8886C331.464 67.6926 331.161 67.4312 330.937 67.1046C330.722 66.7779 330.615 66.4092 330.615 65.9986C330.615 65.4946 330.745 65.0979 331.007 64.8086C331.268 64.5099 331.693 64.2952 332.281 64.1646C332.869 64.0339 333.657 63.9686 334.647 63.9686H335.347V64.9766H334.661C334.082 64.9766 333.62 65.0046 333.275 65.0606C332.929 65.1166 332.682 65.2146 332.533 65.3546C332.393 65.4852 332.323 65.6719 332.323 65.9146C332.323 66.2226 332.43 66.4746 332.645 66.6706C332.859 66.8666 333.158 66.9646 333.541 66.9646C333.849 66.9646 334.119 66.8946 334.353 66.7546C334.595 66.6052 334.787 66.4046 334.927 66.1526C335.067 65.9006 335.137 65.6112 335.137 65.2846V63.6746C335.137 63.2079 335.034 62.8719 334.829 62.6666C334.623 62.4612 334.278 62.3586 333.793 62.3586C333.522 62.3586 333.228 62.3912 332.911 62.4566C332.603 62.5219 332.276 62.6339 331.931 62.7926C331.753 62.8766 331.595 62.8999 331.455 62.8626C331.324 62.8252 331.221 62.7506 331.147 62.6386C331.072 62.5172 331.035 62.3866 331.035 62.2466C331.035 62.1066 331.072 61.9712 331.147 61.8406C331.221 61.7006 331.347 61.5979 331.525 61.5326C331.954 61.3552 332.365 61.2292 332.757 61.1546C333.158 61.0799 333.522 61.0426 333.849 61.0426C334.521 61.0426 335.071 61.1452 335.501 61.3506C335.939 61.5559 336.266 61.8686 336.481 62.2886C336.695 62.6992 336.803 63.2312 336.803 63.8846V67.2446C336.803 67.5339 336.733 67.7579 336.593 67.9166C336.453 68.0659 336.252 68.1406 335.991 68.1406C335.729 68.1406 335.524 68.0659 335.375 67.9166C335.235 67.7579 335.165 67.5339 335.165 67.2446V66.5726H335.277C335.211 66.8992 335.081 67.1839 334.885 67.4266C334.698 67.6599 334.46 67.8419 334.171 67.9726C333.881 68.1032 333.55 68.1686 333.177 68.1686ZM340.917 68.1686C340.142 68.1686 339.559 67.9492 339.167 67.5106C338.775 67.0626 338.579 66.4092 338.579 65.5506V58.9286C338.579 58.6392 338.654 58.4199 338.803 58.2706C338.952 58.1212 339.167 58.0466 339.447 58.0466C339.727 58.0466 339.942 58.1212 340.091 58.2706C340.25 58.4199 340.329 58.6392 340.329 58.9286V65.4666C340.329 65.8959 340.418 66.2132 340.595 66.4186C340.782 66.6239 341.043 66.7266 341.379 66.7266C341.454 66.7266 341.524 66.7266 341.589 66.7266C341.654 66.7172 341.72 66.7079 341.785 66.6986C341.916 66.6799 342.004 66.7172 342.051 66.8106C342.098 66.8946 342.121 67.0719 342.121 67.3426C342.121 67.5759 342.074 67.7579 341.981 67.8886C341.888 68.0192 341.734 68.0986 341.519 68.1266C341.426 68.1359 341.328 68.1452 341.225 68.1546C341.122 68.1639 341.02 68.1686 340.917 68.1686ZM343.918 68.1266C343.638 68.1266 343.423 68.0426 343.274 67.8746C343.124 67.7066 343.05 67.4732 343.05 67.1746V62.0366C343.05 61.7286 343.124 61.4952 343.274 61.3366C343.423 61.1686 343.638 61.0846 343.918 61.0846C344.198 61.0846 344.412 61.1686 344.562 61.3366C344.72 61.4952 344.8 61.7286 344.8 62.0366V67.1746C344.8 67.4732 344.725 67.7066 344.576 67.8746C344.426 68.0426 344.207 68.1266 343.918 68.1266ZM343.918 59.7826C343.591 59.7826 343.334 59.7032 343.148 59.5446C342.97 59.3766 342.882 59.1479 342.882 58.8586C342.882 58.5599 342.97 58.3312 343.148 58.1726C343.334 58.0139 343.591 57.9346 343.918 57.9346C344.254 57.9346 344.51 58.0139 344.688 58.1726C344.865 58.3312 344.954 58.5599 344.954 58.8586C344.954 59.1479 344.865 59.3766 344.688 59.5446C344.51 59.7032 344.254 59.7826 343.918 59.7826ZM349.25 68.1686C348.653 68.1686 348.125 68.0239 347.668 67.7346C347.22 67.4452 346.87 67.0346 346.618 66.5026C346.366 65.9612 346.24 65.3266 346.24 64.5986C346.24 63.8612 346.366 63.2312 346.618 62.7086C346.87 62.1766 347.22 61.7659 347.668 61.4766C348.125 61.1872 348.653 61.0426 349.25 61.0426C349.819 61.0426 350.314 61.1826 350.734 61.4626C351.163 61.7426 351.453 62.1112 351.602 62.5686H351.448V58.9286C351.448 58.6392 351.523 58.4199 351.672 58.2706C351.821 58.1212 352.036 58.0466 352.316 58.0466C352.596 58.0466 352.811 58.1212 352.96 58.2706C353.119 58.4199 353.198 58.6392 353.198 58.9286V67.2446C353.198 67.5339 353.123 67.7579 352.974 67.9166C352.825 68.0659 352.61 68.1406 352.33 68.1406C352.05 68.1406 351.835 68.0659 351.686 67.9166C351.537 67.7579 351.462 67.5339 351.462 67.2446V66.1526L351.616 66.5726C351.476 67.0579 351.191 67.4452 350.762 67.7346C350.333 68.0239 349.829 68.1686 349.25 68.1686ZM349.74 66.8386C350.085 66.8386 350.389 66.7546 350.65 66.5866C350.911 66.4186 351.112 66.1712 351.252 65.8446C351.401 65.5086 351.476 65.0932 351.476 64.5986C351.476 63.8519 351.317 63.2966 351 62.9326C350.683 62.5592 350.263 62.3726 349.74 62.3726C349.395 62.3726 349.091 62.4566 348.83 62.6246C348.569 62.7832 348.363 63.0306 348.214 63.3666C348.074 63.6932 348.004 64.1039 348.004 64.5986C348.004 65.3359 348.163 65.8959 348.48 66.2786C348.797 66.6519 349.217 66.8386 349.74 66.8386ZM357.267 68.1686C356.772 68.1686 356.329 68.0752 355.937 67.8886C355.554 67.6926 355.251 67.4312 355.027 67.1046C354.812 66.7779 354.705 66.4092 354.705 65.9986C354.705 65.4946 354.835 65.0979 355.097 64.8086C355.358 64.5099 355.783 64.2952 356.371 64.1646C356.959 64.0339 357.747 63.9686 358.737 63.9686H359.437V64.9766H358.751C358.172 64.9766 357.71 65.0046 357.365 65.0606C357.019 65.1166 356.772 65.2146 356.623 65.3546C356.483 65.4852 356.413 65.6719 356.413 65.9146C356.413 66.2226 356.52 66.4746 356.735 66.6706C356.949 66.8666 357.248 66.9646 357.631 66.9646C357.939 66.9646 358.209 66.8946 358.443 66.7546C358.685 66.6052 358.877 66.4046 359.017 66.1526C359.157 65.9006 359.227 65.6112 359.227 65.2846V63.6746C359.227 63.2079 359.124 62.8719 358.919 62.6666C358.713 62.4612 358.368 62.3586 357.883 62.3586C357.612 62.3586 357.318 62.3912 357.001 62.4566C356.693 62.5219 356.366 62.6339 356.021 62.7926C355.843 62.8766 355.685 62.8999 355.545 62.8626C355.414 62.8252 355.311 62.7506 355.237 62.6386C355.162 62.5172 355.125 62.3866 355.125 62.2466C355.125 62.1066 355.162 61.9712 355.237 61.8406C355.311 61.7006 355.437 61.5979 355.615 61.5326C356.044 61.3552 356.455 61.2292 356.847 61.1546C357.248 61.0799 357.612 61.0426 357.939 61.0426C358.611 61.0426 359.161 61.1452 359.591 61.3506C360.029 61.5559 360.356 61.8686 360.571 62.2886C360.785 62.6992 360.893 63.2312 360.893 63.8846V67.2446C360.893 67.5339 360.823 67.7579 360.683 67.9166C360.543 68.0659 360.342 68.1406 360.081 68.1406C359.819 68.1406 359.614 68.0659 359.465 67.9166C359.325 67.7579 359.255 67.5339 359.255 67.2446V66.5726H359.367C359.301 66.8992 359.171 67.1839 358.975 67.4266C358.788 67.6599 358.55 67.8419 358.261 67.9726C357.971 68.1032 357.64 68.1686 357.267 68.1686ZM365.805 68.1686C365.198 68.1686 364.689 68.0659 364.279 67.8606C363.877 67.6552 363.579 67.3566 363.383 66.9646C363.187 66.5632 363.089 66.0686 363.089 65.4806V62.4986H362.361C362.137 62.4986 361.964 62.4426 361.843 62.3306C361.721 62.2092 361.661 62.0459 361.661 61.8406C361.661 61.6259 361.721 61.4626 361.843 61.3506C361.964 61.2386 362.137 61.1826 362.361 61.1826H363.089V59.9086C363.089 59.6192 363.163 59.3999 363.313 59.2506C363.471 59.1012 363.691 59.0266 363.971 59.0266C364.251 59.0266 364.465 59.1012 364.615 59.2506C364.764 59.3999 364.839 59.6192 364.839 59.9086V61.1826H366.323C366.547 61.1826 366.719 61.2386 366.841 61.3506C366.962 61.4626 367.023 61.6259 367.023 61.8406C367.023 62.0459 366.962 62.2092 366.841 62.3306C366.719 62.4426 366.547 62.4986 366.323 62.4986H364.839V65.3826C364.839 65.8306 364.937 66.1666 365.133 66.3906C365.329 66.6146 365.646 66.7266 366.085 66.7266C366.243 66.7266 366.383 66.7126 366.505 66.6846C366.626 66.6566 366.733 66.6379 366.827 66.6286C366.939 66.6192 367.032 66.6566 367.107 66.7406C367.181 66.8152 367.219 66.9739 367.219 67.2166C367.219 67.4032 367.186 67.5712 367.121 67.7206C367.065 67.8606 366.957 67.9586 366.799 68.0146C366.677 68.0519 366.519 68.0846 366.323 68.1126C366.127 68.1499 365.954 68.1686 365.805 68.1686ZM369.088 68.1266C368.808 68.1266 368.593 68.0426 368.444 67.8746C368.294 67.7066 368.22 67.4732 368.22 67.1746V62.0366C368.22 61.7286 368.294 61.4952 368.444 61.3366C368.593 61.1686 368.808 61.0846 369.088 61.0846C369.368 61.0846 369.582 61.1686 369.732 61.3366C369.89 61.4952 369.97 61.7286 369.97 62.0366V67.1746C369.97 67.4732 369.895 67.7066 369.746 67.8746C369.596 68.0426 369.377 68.1266 369.088 68.1266ZM369.088 59.7826C368.761 59.7826 368.504 59.7032 368.318 59.5446C368.14 59.3766 368.052 59.1479 368.052 58.8586C368.052 58.5599 368.14 58.3312 368.318 58.1726C368.504 58.0139 368.761 57.9346 369.088 57.9346C369.424 57.9346 369.68 58.0139 369.858 58.1726C370.035 58.3312 370.124 58.5599 370.124 58.8586C370.124 59.1479 370.035 59.3766 369.858 59.5446C369.68 59.7032 369.424 59.7826 369.088 59.7826ZM374.91 68.1686C374.201 68.1686 373.585 68.0239 373.062 67.7346C372.539 67.4452 372.133 67.0346 371.844 66.5026C371.555 65.9612 371.41 65.3266 371.41 64.5986C371.41 64.0479 371.489 63.5579 371.648 63.1286C371.816 62.6899 372.054 62.3166 372.362 62.0086C372.67 61.6912 373.039 61.4532 373.468 61.2946C373.897 61.1266 374.378 61.0426 374.91 61.0426C375.619 61.0426 376.235 61.1872 376.758 61.4766C377.281 61.7659 377.687 62.1766 377.976 62.7086C378.265 63.2406 378.41 63.8706 378.41 64.5986C378.41 65.1492 378.326 65.6439 378.158 66.0826C377.999 66.5212 377.766 66.8992 377.458 67.2166C377.15 67.5246 376.781 67.7626 376.352 67.9306C375.923 68.0892 375.442 68.1686 374.91 68.1686ZM374.91 66.8386C375.255 66.8386 375.559 66.7546 375.82 66.5866C376.081 66.4186 376.282 66.1712 376.422 65.8446C376.571 65.5086 376.646 65.0932 376.646 64.5986C376.646 63.8519 376.487 63.2966 376.17 62.9326C375.853 62.5592 375.433 62.3726 374.91 62.3726C374.565 62.3726 374.261 62.4566 374 62.6246C373.739 62.7832 373.533 63.0306 373.384 63.3666C373.244 63.6932 373.174 64.1039 373.174 64.5986C373.174 65.3359 373.333 65.8959 373.65 66.2786C373.967 66.6519 374.387 66.8386 374.91 66.8386ZM380.722 68.1406C380.442 68.1406 380.228 68.0659 380.078 67.9166C379.929 67.7579 379.854 67.5339 379.854 67.2446V61.9526C379.854 61.6632 379.929 61.4439 380.078 61.2946C380.228 61.1452 380.438 61.0706 380.708 61.0706C380.979 61.0706 381.189 61.1452 381.338 61.2946C381.488 61.4439 381.562 61.6632 381.562 61.9526V62.9046L381.408 62.5546C381.614 62.0599 381.931 61.6866 382.36 61.4346C382.799 61.1732 383.294 61.0426 383.844 61.0426C384.395 61.0426 384.848 61.1452 385.202 61.3506C385.557 61.5559 385.823 61.8686 386 62.2886C386.178 62.6992 386.266 63.2219 386.266 63.8566V67.2446C386.266 67.5339 386.192 67.7579 386.042 67.9166C385.893 68.0659 385.678 68.1406 385.398 68.1406C385.118 68.1406 384.899 68.0659 384.74 67.9166C384.591 67.7579 384.516 67.5339 384.516 67.2446V63.9406C384.516 63.4086 384.414 63.0212 384.208 62.7786C384.012 62.5359 383.704 62.4146 383.284 62.4146C382.771 62.4146 382.36 62.5779 382.052 62.9046C381.754 63.2219 381.604 63.6466 381.604 64.1786V67.2446C381.604 67.8419 381.31 68.1406 380.722 68.1406Z" fill="#0D6098"/>
<path d="M167.379 68.1406C167.09 68.1406 166.866 68.0612 166.707 67.9026C166.558 67.7346 166.483 67.5059 166.483 67.2166V59.0686C166.483 58.7699 166.563 58.5459 166.721 58.3966C166.88 58.2379 167.104 58.1586 167.393 58.1586H170.767C171.85 58.1586 172.685 58.4292 173.273 58.9706C173.861 59.5119 174.155 60.2679 174.155 61.2386C174.155 62.2092 173.861 62.9699 173.273 63.5206C172.685 64.0619 171.85 64.3326 170.767 64.3326H168.275V67.2166C168.275 67.5059 168.201 67.7346 168.051 67.9026C167.902 68.0612 167.678 68.1406 167.379 68.1406ZM168.275 62.9186H170.487C171.122 62.9186 171.603 62.7786 171.929 62.4986C172.256 62.2092 172.419 61.7892 172.419 61.2386C172.419 60.6879 172.256 60.2726 171.929 59.9926C171.603 59.7126 171.122 59.5726 170.487 59.5726H168.275V62.9186ZM177.374 68.1686C176.879 68.1686 176.436 68.0752 176.044 67.8886C175.661 67.6926 175.358 67.4312 175.134 67.1046C174.919 66.7779 174.812 66.4092 174.812 65.9986C174.812 65.4946 174.943 65.0979 175.204 64.8086C175.465 64.5099 175.89 64.2952 176.478 64.1646C177.066 64.0339 177.855 63.9686 178.844 63.9686H179.544V64.9766H178.858C178.279 64.9766 177.817 65.0046 177.472 65.0606C177.127 65.1166 176.879 65.2146 176.73 65.3546C176.59 65.4852 176.52 65.6719 176.52 65.9146C176.52 66.2226 176.627 66.4746 176.842 66.6706C177.057 66.8666 177.355 66.9646 177.738 66.9646C178.046 66.9646 178.317 66.8946 178.55 66.7546C178.793 66.6052 178.984 66.4046 179.124 66.1526C179.264 65.9006 179.334 65.6112 179.334 65.2846V63.6746C179.334 63.2079 179.231 62.8719 179.026 62.6666C178.821 62.4612 178.475 62.3586 177.99 62.3586C177.719 62.3586 177.425 62.3912 177.108 62.4566C176.8 62.5219 176.473 62.6339 176.128 62.7926C175.951 62.8766 175.792 62.8999 175.652 62.8626C175.521 62.8252 175.419 62.7506 175.344 62.6386C175.269 62.5172 175.232 62.3866 175.232 62.2466C175.232 62.1066 175.269 61.9712 175.344 61.8406C175.419 61.7006 175.545 61.5979 175.722 61.5326C176.151 61.3552 176.562 61.2292 176.954 61.1546C177.355 61.0799 177.719 61.0426 178.046 61.0426C178.718 61.0426 179.269 61.1452 179.698 61.3506C180.137 61.5559 180.463 61.8686 180.678 62.2886C180.893 62.6992 181 63.2312 181 63.8846V67.2446C181 67.5339 180.93 67.7579 180.79 67.9166C180.65 68.0659 180.449 68.1406 180.188 68.1406C179.927 68.1406 179.721 68.0659 179.572 67.9166C179.432 67.7579 179.362 67.5339 179.362 67.2446V66.5726H179.474C179.409 66.8992 179.278 67.1839 179.082 67.4266C178.895 67.6599 178.657 67.8419 178.368 67.9726C178.079 68.1032 177.747 68.1686 177.374 68.1686ZM184.444 70.6606C184.239 70.6606 184.071 70.6046 183.94 70.4926C183.809 70.3899 183.73 70.2499 183.702 70.0726C183.683 69.8952 183.716 69.7086 183.8 69.5126L184.752 67.3986V68.1266L182.204 62.2326C182.12 62.0272 182.092 61.8359 182.12 61.6586C182.148 61.4812 182.232 61.3412 182.372 61.2386C182.521 61.1266 182.722 61.0706 182.974 61.0706C183.189 61.0706 183.361 61.1219 183.492 61.2246C183.623 61.3179 183.739 61.4999 183.842 61.7706L185.732 66.4886H185.312L187.244 61.7566C187.347 61.4952 187.468 61.3179 187.608 61.2246C187.748 61.1219 187.935 61.0706 188.168 61.0706C188.373 61.0706 188.537 61.1266 188.658 61.2386C188.779 61.3412 188.854 61.4812 188.882 61.6586C188.91 61.8266 188.877 62.0132 188.784 62.2186L185.382 69.9886C185.261 70.2499 185.13 70.4272 184.99 70.5206C184.85 70.6139 184.668 70.6606 184.444 70.6606ZM190.973 68.1406C190.693 68.1406 190.478 68.0659 190.329 67.9166C190.18 67.7579 190.105 67.5339 190.105 67.2446V61.9526C190.105 61.6632 190.18 61.4439 190.329 61.2946C190.478 61.1452 190.688 61.0706 190.959 61.0706C191.23 61.0706 191.44 61.1452 191.589 61.2946C191.738 61.4439 191.813 61.6632 191.813 61.9526V62.9746L191.659 62.5546C191.846 62.0879 192.135 61.7192 192.527 61.4486C192.919 61.1779 193.386 61.0426 193.927 61.0426C194.478 61.0426 194.93 61.1732 195.285 61.4346C195.64 61.6959 195.887 62.0972 196.027 62.6386H195.831C196.018 62.1439 196.326 61.7566 196.755 61.4766C197.184 61.1872 197.679 61.0426 198.239 61.0426C198.762 61.0426 199.191 61.1452 199.527 61.3506C199.872 61.5559 200.129 61.8686 200.297 62.2886C200.465 62.6992 200.549 63.2219 200.549 63.8566V67.2446C200.549 67.5339 200.47 67.7579 200.311 67.9166C200.162 68.0659 199.947 68.1406 199.667 68.1406C199.387 68.1406 199.172 68.0659 199.023 67.9166C198.874 67.7579 198.799 67.5339 198.799 67.2446V63.9266C198.799 63.4039 198.71 63.0212 198.533 62.7786C198.365 62.5359 198.076 62.4146 197.665 62.4146C197.208 62.4146 196.848 62.5779 196.587 62.9046C196.326 63.2219 196.195 63.6652 196.195 64.2346V67.2446C196.195 67.5339 196.12 67.7579 195.971 67.9166C195.822 68.0659 195.607 68.1406 195.327 68.1406C195.047 68.1406 194.828 68.0659 194.669 67.9166C194.52 67.7579 194.445 67.5339 194.445 67.2446V63.9266C194.445 63.4039 194.356 63.0212 194.179 62.7786C194.011 62.5359 193.726 62.4146 193.325 62.4146C192.868 62.4146 192.508 62.5779 192.247 62.9046C191.986 63.2219 191.855 63.6652 191.855 64.2346V67.2446C191.855 67.8419 191.561 68.1406 190.973 68.1406ZM205.728 68.1686C204.954 68.1686 204.286 68.0239 203.726 67.7346C203.166 67.4452 202.732 67.0346 202.424 66.5026C202.126 65.9706 201.976 65.3406 201.976 64.6126C201.976 63.9032 202.121 63.2826 202.41 62.7506C202.709 62.2186 203.115 61.8032 203.628 61.5046C204.151 61.1966 204.744 61.0426 205.406 61.0426C205.892 61.0426 206.326 61.1219 206.708 61.2806C207.1 61.4392 207.432 61.6679 207.702 61.9666C207.982 62.2652 208.192 62.6292 208.332 63.0586C208.482 63.4786 208.556 63.9546 208.556 64.4866C208.556 64.6546 208.496 64.7852 208.374 64.8786C208.262 64.9626 208.099 65.0046 207.884 65.0046H203.39V63.9966H207.324L207.1 64.2066C207.1 63.7772 207.035 63.4179 206.904 63.1286C206.783 62.8392 206.601 62.6199 206.358 62.4706C206.125 62.3119 205.831 62.2326 205.476 62.2326C205.084 62.2326 204.748 62.3259 204.468 62.5126C204.198 62.6899 203.988 62.9466 203.838 63.2826C203.698 63.6092 203.628 64.0012 203.628 64.4586V64.5566C203.628 65.3219 203.806 65.8959 204.16 66.2786C204.524 66.6519 205.056 66.8386 205.756 66.8386C205.999 66.8386 206.27 66.8106 206.568 66.7546C206.876 66.6892 207.166 66.5819 207.436 66.4326C207.632 66.3206 207.805 66.2739 207.954 66.2926C208.104 66.3019 208.22 66.3532 208.304 66.4466C208.398 66.5399 208.454 66.6566 208.472 66.7966C208.491 66.9272 208.463 67.0626 208.388 67.2026C208.323 67.3426 208.206 67.4639 208.038 67.5666C207.712 67.7719 207.334 67.9259 206.904 68.0286C206.484 68.1219 206.092 68.1686 205.728 68.1686ZM210.81 68.1406C210.53 68.1406 210.316 68.0659 210.166 67.9166C210.017 67.7579 209.942 67.5339 209.942 67.2446V61.9526C209.942 61.6632 210.017 61.4439 210.166 61.2946C210.316 61.1452 210.526 61.0706 210.796 61.0706C211.067 61.0706 211.277 61.1452 211.426 61.2946C211.576 61.4439 211.65 61.6632 211.65 61.9526V62.9046L211.496 62.5546C211.702 62.0599 212.019 61.6866 212.448 61.4346C212.887 61.1732 213.382 61.0426 213.932 61.0426C214.483 61.0426 214.936 61.1452 215.29 61.3506C215.645 61.5559 215.911 61.8686 216.088 62.2886C216.266 62.6992 216.354 63.2219 216.354 63.8566V67.2446C216.354 67.5339 216.28 67.7579 216.13 67.9166C215.981 68.0659 215.766 68.1406 215.486 68.1406C215.206 68.1406 214.987 68.0659 214.828 67.9166C214.679 67.7579 214.604 67.5339 214.604 67.2446V63.9406C214.604 63.4086 214.502 63.0212 214.296 62.7786C214.1 62.5359 213.792 62.4146 213.372 62.4146C212.859 62.4146 212.448 62.5779 212.14 62.9046C211.842 63.2219 211.692 63.6466 211.692 64.1786V67.2446C211.692 67.8419 211.398 68.1406 210.81 68.1406ZM221.268 68.1686C220.661 68.1686 220.152 68.0659 219.742 67.8606C219.34 67.6552 219.042 67.3566 218.846 66.9646C218.65 66.5632 218.552 66.0686 218.552 65.4806V62.4986H217.824C217.6 62.4986 217.427 62.4426 217.306 62.3306C217.184 62.2092 217.124 62.0459 217.124 61.8406C217.124 61.6259 217.184 61.4626 217.306 61.3506C217.427 61.2386 217.6 61.1826 217.824 61.1826H218.552V59.9086C218.552 59.6192 218.626 59.3999 218.776 59.2506C218.934 59.1012 219.154 59.0266 219.434 59.0266C219.714 59.0266 219.928 59.1012 220.078 59.2506C220.227 59.3999 220.302 59.6192 220.302 59.9086V61.1826H221.786C222.01 61.1826 222.182 61.2386 222.304 61.3506C222.425 61.4626 222.486 61.6259 222.486 61.8406C222.486 62.0459 222.425 62.2092 222.304 62.3306C222.182 62.4426 222.01 62.4986 221.786 62.4986H220.302V65.3826C220.302 65.8306 220.4 66.1666 220.596 66.3906C220.792 66.6146 221.109 66.7266 221.548 66.7266C221.706 66.7266 221.846 66.7126 221.968 66.6846C222.089 66.6566 222.196 66.6379 222.29 66.6286C222.402 66.6192 222.495 66.6566 222.57 66.7406C222.644 66.8152 222.682 66.9739 222.682 67.2166C222.682 67.4032 222.649 67.5712 222.584 67.7206C222.528 67.8606 222.42 67.9586 222.262 68.0146C222.14 68.0519 221.982 68.0846 221.786 68.1126C221.59 68.1499 221.417 68.1686 221.268 68.1686Z" fill="#0D6098"/>
<path d="M69.083 20.9714H156.628" stroke="#0D6098"/>
<path d="M232.955 20.9714H320.5" stroke="#0D6098"/>
</svg>
