<svg width="34" height="34" viewBox="0 0 34 34" fill="none" xmlns="http://www.w3.org/2000/svg">
<path d="M29.8961 10.0035L17.5938 3.18561C17.3918 3.07388 17.1647 3.01526 16.9339 3.01526C16.703 3.01526 16.4759 3.07388 16.2739 3.18561L4.03165 9.94899C3.81897 10.0668 3.64165 10.2392 3.51804 10.4486C3.39443 10.6579 3.32903 10.8965 3.32862 11.1396C3.3282 11.3827 3.39278 11.6215 3.51567 11.8312C3.63856 12.041 3.81529 12.214 4.02756 12.3325L16.3298 19.205C16.5325 19.3182 16.7608 19.3777 16.993 19.3779C17.2252 19.3782 17.4536 19.3191 17.6566 19.2064L29.8988 12.3884C30.1115 12.2702 30.2886 12.0971 30.4119 11.8873C30.5351 11.6775 30.6 11.4385 30.5997 11.1952C30.5994 10.9518 30.534 10.713 30.4103 10.5035C30.2866 10.2939 30.109 10.1213 29.8961 10.0035Z" fill="#002D4A"/>
<path d="M16.9639 21.909L5.35297 15.4592L4.02893 17.8428L16.3012 24.6607C16.5037 24.7732 16.7315 24.8322 16.9632 24.8322C17.1949 24.8322 17.4227 24.7732 17.6252 24.6607L29.8975 17.8428L28.5734 15.4592L16.9639 21.909Z" fill="#002D4A"/>
<path d="M16.9639 27.3633L5.35297 20.9136L4.02893 23.2971L16.3012 30.115C16.5037 30.2275 16.7315 30.2865 16.9632 30.2865C17.1949 30.2865 17.4227 30.2275 17.6252 30.115L29.8975 23.2971L28.5734 20.9136L16.9639 27.3633Z" fill="#002D4A"/>
</svg>
