<svg width="71" height="71" viewBox="0 0 71 71" fill="none" xmlns="http://www.w3.org/2000/svg">
<g filter="url(#filter0_d_312_125)">
<rect x="4.94922" y="0.397461" width="62" height="62" rx="10" fill="white"/>
<path d="M30.9492 41.3975C30.3992 41.3975 29.9286 41.2018 29.5372 40.8105C29.1459 40.4191 28.9499 39.9481 28.9492 39.3975C28.9486 38.8468 29.1446 38.3761 29.5372 37.9855C29.9299 37.5948 30.4006 37.3988 30.9492 37.3975C31.4979 37.3961 31.9689 37.5921 32.3622 37.9855C32.7556 38.3788 32.9512 38.8495 32.9492 39.3975C32.9472 39.9455 32.7516 40.4165 32.3622 40.8105C31.9729 41.2045 31.5019 41.4001 30.9492 41.3975ZM40.9492 41.3975C40.3992 41.3975 39.9286 41.2018 39.5372 40.8105C39.1459 40.4191 38.9499 39.9481 38.9492 39.3975C38.9486 38.8468 39.1446 38.3761 39.5372 37.9855C39.9299 37.5948 40.4006 37.3988 40.9492 37.3975C41.4979 37.3961 41.9689 37.5921 42.3622 37.9855C42.7556 38.3788 42.9512 38.8495 42.9492 39.3975C42.9472 39.9455 42.7516 40.4165 42.3622 40.8105C41.9729 41.2045 41.5019 41.4001 40.9492 41.3975ZM30.0992 25.3975L32.4992 30.3975H39.4992L42.2492 25.3975H30.0992ZM29.1492 23.3975H43.8992C44.2826 23.3975 44.5742 23.5685 44.7742 23.9105C44.9742 24.2525 44.9826 24.5981 44.7992 24.9475L41.2492 31.3475C41.0659 31.6808 40.8202 31.9391 40.5122 32.1225C40.2042 32.3058 39.8666 32.3975 39.4992 32.3975H32.0492L30.9492 34.3975H42.9492V36.3975H30.9492C30.1992 36.3975 29.6326 36.0685 29.2492 35.4105C28.8659 34.7525 28.8492 34.0981 29.1992 33.4475L30.5492 30.9975L26.9492 23.3975H24.9492V21.3975H28.1992L29.1492 23.3975Z" fill="black"/>
</g>
<defs>
<filter id="filter0_d_312_125" x="0.949219" y="0.397461" width="70" height="70" filterUnits="userSpaceOnUse" color-interpolation-filters="sRGB">
<feFlood flood-opacity="0" result="BackgroundImageFix"/>
<feColorMatrix in="SourceAlpha" type="matrix" values="0 0 0 0 0 0 0 0 0 0 0 0 0 0 0 0 0 0 127 0" result="hardAlpha"/>
<feOffset dy="4"/>
<feGaussianBlur stdDeviation="2"/>
<feComposite in2="hardAlpha" operator="out"/>
<feColorMatrix type="matrix" values="0 0 0 0 0 0 0 0 0 0 0 0 0 0 0 0 0 0 0.25 0"/>
<feBlend mode="normal" in2="BackgroundImageFix" result="effect1_dropShadow_312_125"/>
<feBlend mode="normal" in="SourceGraphic" in2="effect1_dropShadow_312_125" result="shape"/>
</filter>
</defs>
</svg>
