<svg width="21" height="21" viewBox="0 0 21 21" fill="none" xmlns="http://www.w3.org/2000/svg">
<path d="M6.50928 20.9665C5.95928 20.9665 5.48861 20.7711 5.09728 20.3801C4.70594 19.9892 4.50994 19.5187 4.50928 18.9685C4.50861 18.4184 4.70461 17.9482 5.09728 17.558C5.48994 17.1677 5.96061 16.9719 6.50928 16.9706C7.05794 16.9692 7.52894 17.165 7.92228 17.558C8.31561 17.9509 8.51128 18.4211 8.50928 18.9685C8.50728 19.516 8.31161 19.9865 7.92228 20.3801C7.53294 20.7737 7.06194 20.9692 6.50928 20.9665ZM16.5093 20.9665C15.9593 20.9665 15.4886 20.7711 15.0973 20.3801C14.7059 19.9892 14.5099 19.5187 14.5093 18.9685C14.5086 18.4184 14.7046 17.9482 15.0973 17.558C15.4899 17.1677 15.9606 16.9719 16.5093 16.9706C17.0579 16.9692 17.5289 17.165 17.9223 17.558C18.3156 17.9509 18.5113 18.4211 18.5093 18.9685C18.5073 19.516 18.3116 19.9865 17.9223 20.3801C17.5329 20.7737 17.0619 20.9692 16.5093 20.9665ZM5.65928 4.98257L8.05928 9.97756H15.0593L17.8093 4.98257H5.65928ZM4.70928 2.98457H19.4593C19.8426 2.98457 20.1343 3.1554 20.3343 3.49706C20.5343 3.83871 20.5426 4.18403 20.3593 4.53302L16.8093 10.9266C16.6259 11.2596 16.3803 11.5177 16.0723 11.7008C15.7643 11.884 15.4266 11.9756 15.0593 11.9756H7.60928L6.50928 13.9736H18.5093V15.9716H6.50928C5.75928 15.9716 5.19261 15.6429 4.80928 14.9855C4.42594 14.3282 4.40928 13.6745 4.75928 13.0245L6.10928 10.577L2.50928 2.98457H0.509277V0.986572H3.75928L4.70928 2.98457Z" fill="black"/>
</svg>
