<svg width="41" height="41" viewBox="0 0 41 41" fill="none" xmlns="http://www.w3.org/2000/svg">
<path d="M33.9675 31.3702C35.7627 29.2103 37.0112 26.6498 37.6075 23.9054C38.2038 21.1609 38.1304 18.3132 37.3934 15.6032C36.6563 12.8931 35.2774 10.4004 33.3733 8.336C31.4692 6.27156 29.0959 4.6961 26.4541 3.74289C23.8123 2.78967 20.9798 2.48675 18.1962 2.85975C15.4126 3.23275 12.7598 4.2707 10.4621 5.88579C8.16452 7.50087 6.28969 9.64559 4.99624 12.1385C3.7028 14.6314 3.0288 17.3992 3.03126 20.2077C3.03231 24.2904 4.47103 28.2423 7.09501 31.3702L7.07001 31.3914C7.15751 31.4964 7.25751 31.5864 7.34751 31.6902C7.46001 31.8189 7.58126 31.9402 7.69751 32.0652C8.04584 32.446 8.40834 32.8085 8.78501 33.1527C8.90167 33.256 9.01834 33.3568 9.13501 33.4552C9.53501 33.801 9.94751 34.1268 10.3725 34.4327C10.4275 34.4702 10.4775 34.5189 10.5325 34.5577V34.5427C13.4601 36.603 16.9526 37.7088 20.5325 37.7088C24.1124 37.7088 27.6049 36.603 30.5325 34.5427V34.5577C30.5875 34.5189 30.6363 34.4702 30.6925 34.4327C31.1175 34.126 31.53 33.8002 31.93 33.4552C32.0467 33.356 32.1633 33.2552 32.28 33.1527C32.6558 32.8085 33.0183 32.446 33.3675 32.0652C33.4838 31.9402 33.6038 31.8189 33.7175 31.6902C33.8063 31.5864 33.9075 31.4964 33.995 31.3902L33.9675 31.3702ZM20.5313 10.2077C21.6438 10.2077 22.7313 10.5376 23.6563 11.1556C24.5814 11.7737 25.3023 12.6522 25.7281 13.6801C26.1538 14.7079 26.2652 15.8389 26.0482 16.93C25.8311 18.0212 25.2954 19.0235 24.5087 19.8101C23.7221 20.5968 22.7198 21.1325 21.6286 21.3496C20.5375 21.5666 19.4065 21.4552 18.3787 21.0295C17.3508 20.6037 16.4723 19.8828 15.8542 18.9577C15.2362 18.0327 14.9063 16.9452 14.9063 15.8327C14.9063 14.3408 15.4989 12.9101 16.5538 11.8552C17.6087 10.8003 19.0394 10.2077 20.5313 10.2077ZM10.54 31.3702C10.5617 29.7289 11.2287 28.1621 12.3967 27.0088C13.5647 25.8556 15.1398 25.2085 16.7813 25.2077H24.2813C25.9227 25.2085 27.4978 25.8556 28.6658 27.0088C29.8338 28.1621 30.5008 29.7289 30.5225 31.3702C27.7811 33.8406 24.2216 35.2077 20.5313 35.2077C16.8409 35.2077 13.2815 33.8406 10.54 31.3702Z" fill="#222222"/>
</svg>
