<svg width="33" height="33" viewBox="0 0 33 33" fill="none" xmlns="http://www.w3.org/2000/svg">
<circle cx="16.2188" cy="16.1188" r="16" fill="white"/>
<path d="M16.2188 0.118774C7.37075 0.118774 0.21875 7.27077 0.21875 16.1188C0.21875 24.9668 7.37075 32.1188 16.2188 32.1188C25.0668 32.1188 32.2188 24.9668 32.2188 16.1188C32.2188 7.27077 25.0668 0.118774 16.2188 0.118774ZM21.1788 8.23077C21.4028 8.23077 21.6268 8.31077 21.8188 8.48677L23.8508 10.5188C24.2188 10.8708 24.2188 11.4308 23.8508 11.7668L22.2508 13.3668L18.9708 10.0868L20.5708 8.48677C20.7308 8.31077 20.9548 8.23077 21.1788 8.23077ZM18.0268 11.0148L21.3228 14.3108L11.6267 24.0068H8.33075V20.7108L18.0268 11.0148Z" fill="#F6D776"/>
</svg>
