<svg width="388" height="74" viewBox="0 0 388 74" fill="none" xmlns="http://www.w3.org/2000/svg">
<circle cx="29.1265" cy="20.9714" r="19.5" stroke="#0D6098"/>
<circle cx="353.626" cy="20.9714" r="19.5" stroke="#0D6098"/>
<path d="M353.295 28.7114C352.431 28.7114 351.535 28.5994 350.607 28.3754C349.679 28.1514 348.871 27.8154 348.183 27.3674C347.863 27.1594 347.647 26.9194 347.535 26.6474C347.423 26.3754 347.391 26.1194 347.439 25.8794C347.503 25.6234 347.623 25.4074 347.799 25.2314C347.991 25.0554 348.223 24.9514 348.495 24.9194C348.783 24.8874 349.095 24.9594 349.431 25.1354C350.087 25.4874 350.719 25.7434 351.327 25.9034C351.935 26.0474 352.559 26.1194 353.199 26.1194C353.903 26.1194 354.495 26.0234 354.975 25.8314C355.455 25.6394 355.815 25.3514 356.055 24.9674C356.311 24.5834 356.439 24.1194 356.439 23.5754C356.439 22.7754 356.167 22.1834 355.623 21.7994C355.095 21.3994 354.319 21.1994 353.295 21.1994H351.759C351.311 21.1994 350.967 21.0874 350.727 20.8634C350.503 20.6394 350.391 20.3274 350.391 19.9274C350.391 19.5274 350.503 19.2154 350.727 18.9914C350.967 18.7674 351.311 18.6554 351.759 18.6554H353.007C353.615 18.6554 354.135 18.5594 354.567 18.3674C354.999 18.1594 355.335 17.8714 355.575 17.5034C355.815 17.1354 355.935 16.6874 355.935 16.1594C355.935 15.4234 355.687 14.8634 355.191 14.4794C354.711 14.0954 354.007 13.9034 353.079 13.9034C352.487 13.9034 351.927 13.9754 351.399 14.1194C350.887 14.2474 350.319 14.4954 349.695 14.8634C349.407 15.0394 349.127 15.1114 348.855 15.0794C348.599 15.0474 348.383 14.9434 348.207 14.7674C348.031 14.5914 347.911 14.3834 347.847 14.1434C347.783 13.8874 347.799 13.6314 347.895 13.3754C347.991 13.1034 348.191 12.8714 348.495 12.6794C349.183 12.2314 349.943 11.8954 350.775 11.6714C351.607 11.4314 352.463 11.3114 353.343 11.3114C354.511 11.3114 355.511 11.4954 356.343 11.8634C357.175 12.2154 357.807 12.7274 358.239 13.3994C358.687 14.0554 358.911 14.8554 358.911 15.7994C358.911 16.4714 358.783 17.0874 358.527 17.6474C358.271 18.1914 357.911 18.6554 357.447 19.0394C356.983 19.4234 356.423 19.6954 355.767 19.8554V19.5674C356.919 19.7594 357.815 20.2394 358.455 21.0074C359.095 21.7594 359.415 22.7034 359.415 23.8394C359.415 24.8314 359.167 25.6954 358.671 26.4314C358.175 27.1674 357.471 27.7354 356.559 28.1354C355.647 28.5194 354.559 28.7114 353.295 28.7114Z" fill="#0D6098"/>
<circle cx="194.126" cy="20.9714" r="19.5" fill="#0D6098" stroke="#0D6098"/>
<path d="M190.123 28.4714C189.611 28.4714 189.235 28.3594 188.995 28.1354C188.771 27.8954 188.659 27.5514 188.659 27.1034C188.659 26.8314 188.731 26.5674 188.875 26.3114C189.019 26.0554 189.227 25.7834 189.499 25.4954L194.323 20.3594C195.059 19.5914 195.587 18.8954 195.907 18.2714C196.227 17.6314 196.387 16.9914 196.387 16.3514C196.387 15.5514 196.131 14.9434 195.619 14.5274C195.123 14.1114 194.395 13.9034 193.435 13.9034C192.891 13.9034 192.347 13.9834 191.803 14.1434C191.259 14.2874 190.707 14.5434 190.147 14.9114C189.859 15.1034 189.587 15.1834 189.331 15.1514C189.091 15.1194 188.875 15.0154 188.683 14.8394C188.507 14.6634 188.387 14.4474 188.323 14.1914C188.259 13.9354 188.267 13.6794 188.347 13.4234C188.443 13.1514 188.635 12.9194 188.923 12.7274C189.611 12.2634 190.379 11.9114 191.227 11.6714C192.091 11.4314 192.955 11.3114 193.819 11.3114C195.035 11.3114 196.059 11.4954 196.891 11.8634C197.723 12.2314 198.355 12.7674 198.787 13.4714C199.219 14.1754 199.435 15.0314 199.435 16.0394C199.435 16.7114 199.323 17.3674 199.099 18.0074C198.891 18.6474 198.563 19.2954 198.115 19.9514C197.683 20.6074 197.115 21.3034 196.411 22.0394L191.899 26.7434V25.9274H198.955C199.387 25.9274 199.715 26.0314 199.939 26.2394C200.163 26.4474 200.275 26.7594 200.275 27.1754C200.275 27.5914 200.163 27.9114 199.939 28.1354C199.715 28.3594 199.387 28.4714 198.955 28.4714H190.123Z" fill="white"/>
<path d="M5.89022 68.1686C4.86355 68.1686 3.98155 67.9632 3.24421 67.5526C2.51621 67.1326 1.95621 66.5446 1.56421 65.7886C1.17221 65.0232 0.976215 64.1226 0.976215 63.0866C0.976215 62.3119 1.08821 61.6166 1.31221 61.0006C1.53621 60.3752 1.85821 59.8432 2.27821 59.4046C2.69821 58.9566 3.21155 58.6159 3.81821 58.3826C4.43421 58.1399 5.12488 58.0186 5.89022 58.0186C6.40355 58.0186 6.90755 58.0839 7.40222 58.2146C7.89688 58.3452 8.33088 58.5319 8.70421 58.7746C8.90022 58.8959 9.03088 59.0452 9.09621 59.2226C9.16155 59.3906 9.17555 59.5586 9.13822 59.7266C9.10088 59.8852 9.02155 60.0206 8.90021 60.1326C8.78822 60.2446 8.64355 60.3099 8.46622 60.3286C8.29822 60.3379 8.11155 60.2772 7.90622 60.1466C7.61688 59.9599 7.30422 59.8246 6.96822 59.7406C6.63222 59.6566 6.29155 59.6146 5.94621 59.6146C5.28355 59.6146 4.72355 59.7499 4.26621 60.0206C3.80888 60.2912 3.46355 60.6832 3.23021 61.1966C2.99688 61.7099 2.88022 62.3399 2.88022 63.0866C2.88022 63.8239 2.99688 64.4539 3.23021 64.9766C3.46355 65.4992 3.80888 65.8959 4.26621 66.1666C4.72355 66.4372 5.28355 66.5726 5.94621 66.5726C6.30088 66.5726 6.65088 66.5306 6.99622 66.4466C7.34155 66.3532 7.66822 66.2132 7.97622 66.0266C8.18155 65.9052 8.36355 65.8539 8.52222 65.8726C8.69022 65.8819 8.83021 65.9379 8.94222 66.0406C9.05422 66.1432 9.12888 66.2739 9.16622 66.4326C9.20355 66.5819 9.19422 66.7406 9.13822 66.9086C9.08222 67.0672 8.97022 67.2072 8.80222 67.3286C8.42888 67.5992 7.98088 67.8092 7.45822 67.9586C6.94488 68.0986 6.42222 68.1686 5.89022 68.1686ZM11.5138 68.1406C11.2338 68.1406 11.0192 68.0659 10.8698 67.9166C10.7205 67.7579 10.6458 67.5339 10.6458 67.2446V58.9286C10.6458 58.6392 10.7205 58.4199 10.8698 58.2706C11.0192 58.1212 11.2338 58.0466 11.5138 58.0466C11.7938 58.0466 12.0085 58.1212 12.1578 58.2706C12.3165 58.4199 12.3958 58.6392 12.3958 58.9286V62.5546H12.1998C12.4052 62.0599 12.7225 61.6866 13.1518 61.4346C13.5905 61.1732 14.0852 61.0426 14.6358 61.0426C15.1865 61.0426 15.6392 61.1452 15.9938 61.3506C16.3485 61.5559 16.6145 61.8686 16.7918 62.2886C16.9692 62.6992 17.0578 63.2219 17.0578 63.8566V67.2446C17.0578 67.5339 16.9832 67.7579 16.8338 67.9166C16.6845 68.0659 16.4698 68.1406 16.1898 68.1406C15.9098 68.1406 15.6905 68.0659 15.5318 67.9166C15.3825 67.7579 15.3078 67.5339 15.3078 67.2446V63.9406C15.3078 63.4086 15.2052 63.0212 14.9998 62.7786C14.8038 62.5359 14.4958 62.4146 14.0758 62.4146C13.5625 62.4146 13.1518 62.5779 12.8438 62.9046C12.5452 63.2219 12.3958 63.6466 12.3958 64.1786V67.2446C12.3958 67.8419 12.1018 68.1406 11.5138 68.1406ZM22.2093 68.1686C21.4346 68.1686 20.7673 68.0239 20.2073 67.7346C19.6473 67.4452 19.2133 67.0346 18.9053 66.5026C18.6066 65.9706 18.4573 65.3406 18.4573 64.6126C18.4573 63.9032 18.602 63.2826 18.8913 62.7506C19.19 62.2186 19.596 61.8032 20.1093 61.5046C20.632 61.1966 21.2246 61.0426 21.8873 61.0426C22.3726 61.0426 22.8066 61.1219 23.1893 61.2806C23.5813 61.4392 23.9126 61.6679 24.1833 61.9666C24.4633 62.2652 24.6733 62.6292 24.8133 63.0586C24.9626 63.4786 25.0373 63.9546 25.0373 64.4866C25.0373 64.6546 24.9766 64.7852 24.8553 64.8786C24.7433 64.9626 24.58 65.0046 24.3653 65.0046H19.8713V63.9966H23.8053L23.5813 64.2066C23.5813 63.7772 23.516 63.4179 23.3853 63.1286C23.264 62.8392 23.082 62.6199 22.8393 62.4706C22.606 62.3119 22.312 62.2326 21.9573 62.2326C21.5653 62.2326 21.2293 62.3259 20.9493 62.5126C20.6786 62.6899 20.4686 62.9466 20.3193 63.2826C20.1793 63.6092 20.1093 64.0012 20.1093 64.4586V64.5566C20.1093 65.3219 20.2866 65.8959 20.6413 66.2786C21.0053 66.6519 21.5373 66.8386 22.2373 66.8386C22.48 66.8386 22.7506 66.8106 23.0493 66.7546C23.3573 66.6892 23.6466 66.5819 23.9173 66.4326C24.1133 66.3206 24.286 66.2739 24.4353 66.2926C24.5846 66.3019 24.7013 66.3532 24.7853 66.4466C24.8786 66.5399 24.9346 66.6566 24.9533 66.7966C24.972 66.9272 24.944 67.0626 24.8693 67.2026C24.804 67.3426 24.6873 67.4639 24.5193 67.5666C24.1926 67.7719 23.8146 67.9259 23.3853 68.0286C22.9653 68.1219 22.5733 68.1686 22.2093 68.1686ZM29.5872 68.1686C28.8685 68.1686 28.2432 68.0239 27.7112 67.7346C27.1792 67.4359 26.7685 67.0159 26.4792 66.4746C26.1899 65.9332 26.0452 65.2986 26.0452 64.5706C26.0452 64.0199 26.1245 63.5299 26.2832 63.1006C26.4512 62.6619 26.6892 62.2932 26.9972 61.9946C27.3052 61.6866 27.6785 61.4532 28.1172 61.2946C28.5559 61.1266 29.0459 61.0426 29.5872 61.0426C29.8952 61.0426 30.2265 61.0846 30.5812 61.1686C30.9452 61.2526 31.2859 61.3926 31.6032 61.5886C31.7525 61.6819 31.8505 61.7939 31.8972 61.9246C31.9439 62.0552 31.9532 62.1906 31.9252 62.3306C31.8972 62.4612 31.8365 62.5779 31.7432 62.6806C31.6592 62.7739 31.5519 62.8346 31.4212 62.8626C31.2905 62.8812 31.1459 62.8486 30.9872 62.7646C30.7819 62.6432 30.5719 62.5546 30.3572 62.4986C30.1425 62.4332 29.9372 62.4006 29.7412 62.4006C29.4332 62.4006 29.1625 62.4519 28.9292 62.5546C28.6959 62.6479 28.4952 62.7879 28.3272 62.9746C28.1685 63.1519 28.0472 63.3759 27.9632 63.6466C27.8792 63.9172 27.8372 64.2299 27.8372 64.5846C27.8372 65.2752 28.0005 65.8212 28.3272 66.2226C28.6632 66.6146 29.1345 66.8106 29.7412 66.8106C29.9372 66.8106 30.1379 66.7826 30.3432 66.7266C30.5579 66.6706 30.7725 66.5819 30.9872 66.4606C31.1459 66.3766 31.2859 66.3486 31.4072 66.3766C31.5379 66.4046 31.6452 66.4699 31.7292 66.5726C31.8132 66.6659 31.8645 66.7826 31.8832 66.9226C31.9019 67.0532 31.8832 67.1839 31.8272 67.3146C31.7805 67.4452 31.6872 67.5526 31.5472 67.6366C31.2392 67.8232 30.9125 67.9586 30.5672 68.0426C30.2219 68.1266 29.8952 68.1686 29.5872 68.1686ZM33.8947 68.1406C33.6147 68.1406 33.4 68.0659 33.2507 67.9166C33.1014 67.7579 33.0267 67.5339 33.0267 67.2446V58.9286C33.0267 58.6392 33.1014 58.4199 33.2507 58.2706C33.4 58.1212 33.6147 58.0466 33.8947 58.0466C34.1747 58.0466 34.3894 58.1212 34.5387 58.2706C34.6974 58.4199 34.7767 58.6392 34.7767 58.9286V64.0946H34.8047L37.1147 61.6586C37.3014 61.4719 37.4647 61.3272 37.6047 61.2246C37.7447 61.1219 37.936 61.0706 38.1787 61.0706C38.4214 61.0706 38.6034 61.1359 38.7247 61.2666C38.8554 61.3879 38.9207 61.5372 38.9207 61.7146C38.9207 61.8919 38.8367 62.0692 38.6687 62.2466L36.2327 64.8226V64.0946L38.9067 66.9786C39.0747 67.1559 39.1494 67.3379 39.1307 67.5246C39.1214 67.7019 39.0467 67.8512 38.9067 67.9726C38.7667 68.0846 38.5894 68.1406 38.3747 68.1406C38.1134 68.1406 37.9034 68.0892 37.7447 67.9866C37.5954 67.8839 37.4274 67.7299 37.2407 67.5246L34.8047 64.9766H34.7767V67.2446C34.7767 67.8419 34.4827 68.1406 33.8947 68.1406ZM43.5178 68.1686C42.8085 68.1686 42.1925 68.0239 41.6698 67.7346C41.1472 67.4452 40.7412 67.0346 40.4518 66.5026C40.1625 65.9612 40.0178 65.3266 40.0178 64.5986C40.0178 64.0479 40.0972 63.5579 40.2558 63.1286C40.4238 62.6899 40.6618 62.3166 40.9698 62.0086C41.2778 61.6912 41.6465 61.4532 42.0758 61.2946C42.5052 61.1266 42.9858 61.0426 43.5178 61.0426C44.2272 61.0426 44.8432 61.1872 45.3658 61.4766C45.8885 61.7659 46.2945 62.1766 46.5838 62.7086C46.8732 63.2406 47.0178 63.8706 47.0178 64.5986C47.0178 65.1492 46.9338 65.6439 46.7658 66.0826C46.6072 66.5212 46.3738 66.8992 46.0658 67.2166C45.7578 67.5246 45.3892 67.7626 44.9598 67.9306C44.5305 68.0892 44.0498 68.1686 43.5178 68.1686ZM43.5178 66.8386C43.8632 66.8386 44.1665 66.7546 44.4278 66.5866C44.6892 66.4186 44.8898 66.1712 45.0298 65.8446C45.1792 65.5086 45.2538 65.0932 45.2538 64.5986C45.2538 63.8519 45.0952 63.2966 44.7778 62.9326C44.4605 62.5592 44.0405 62.3726 43.5178 62.3726C43.1725 62.3726 42.8692 62.4566 42.6078 62.6246C42.3465 62.7832 42.1412 63.0306 41.9918 63.3666C41.8518 63.6932 41.7818 64.1039 41.7818 64.5986C41.7818 65.3359 41.9405 65.8959 42.2578 66.2786C42.5752 66.6519 42.9952 66.8386 43.5178 66.8386ZM50.9402 68.1686C50.3709 68.1686 49.8996 68.0659 49.5262 67.8606C49.1529 67.6459 48.8729 67.3286 48.6862 66.9086C48.5089 66.4886 48.4202 65.9659 48.4202 65.3406V61.9526C48.4202 61.6539 48.4949 61.4346 48.6442 61.2946C48.7936 61.1452 49.0082 61.0706 49.2882 61.0706C49.5682 61.0706 49.7829 61.1452 49.9322 61.2946C50.0909 61.4346 50.1702 61.6539 50.1702 61.9526V65.3686C50.1702 65.8539 50.2682 66.2132 50.4642 66.4466C50.6602 66.6799 50.9729 66.7966 51.4022 66.7966C51.8689 66.7966 52.2516 66.6379 52.5502 66.3206C52.8489 65.9939 52.9982 65.5646 52.9982 65.0326V61.9526C52.9982 61.6539 53.0729 61.4346 53.2222 61.2946C53.3716 61.1452 53.5862 61.0706 53.8662 61.0706C54.1462 61.0706 54.3609 61.1452 54.5102 61.2946C54.6689 61.4346 54.7482 61.6539 54.7482 61.9526V67.2446C54.7482 67.8419 54.4636 68.1406 53.8942 68.1406C53.6236 68.1406 53.4136 68.0659 53.2642 67.9166C53.1149 67.7579 53.0402 67.5339 53.0402 67.2446V66.1806L53.2362 66.6006C53.0402 67.1046 52.7416 67.4919 52.3402 67.7626C51.9482 68.0332 51.4816 68.1686 50.9402 68.1686ZM59.7057 68.1686C59.099 68.1686 58.5903 68.0659 58.1797 67.8606C57.7783 67.6552 57.4797 67.3566 57.2837 66.9646C57.0877 66.5632 56.9897 66.0686 56.9897 65.4806V62.4986H56.2617C56.0377 62.4986 55.865 62.4426 55.7437 62.3306C55.6223 62.2092 55.5617 62.0459 55.5617 61.8406C55.5617 61.6259 55.6223 61.4626 55.7437 61.3506C55.865 61.2386 56.0377 61.1826 56.2617 61.1826H56.9897V59.9086C56.9897 59.6192 57.0643 59.3999 57.2137 59.2506C57.3723 59.1012 57.5917 59.0266 57.8717 59.0266C58.1517 59.0266 58.3663 59.1012 58.5157 59.2506C58.665 59.3999 58.7397 59.6192 58.7397 59.9086V61.1826H60.2237C60.4477 61.1826 60.6203 61.2386 60.7417 61.3506C60.863 61.4626 60.9237 61.6259 60.9237 61.8406C60.9237 62.0459 60.863 62.2092 60.7417 62.3306C60.6203 62.4426 60.4477 62.4986 60.2237 62.4986H58.7397V65.3826C58.7397 65.8306 58.8377 66.1666 59.0337 66.3906C59.2297 66.6146 59.547 66.7266 59.9857 66.7266C60.1443 66.7266 60.2843 66.7126 60.4057 66.6846C60.527 66.6566 60.6343 66.6379 60.7277 66.6286C60.8397 66.6192 60.933 66.6566 61.0077 66.7406C61.0823 66.8152 61.1197 66.9739 61.1197 67.2166C61.1197 67.4032 61.087 67.5712 61.0217 67.7206C60.9657 67.8606 60.8583 67.9586 60.6997 68.0146C60.5783 68.0519 60.4197 68.0846 60.2237 68.1126C60.0277 68.1499 59.855 68.1686 59.7057 68.1686Z" fill="#0D6098"/>
<path d="M325.991 68.1406C325.739 68.1406 325.529 68.0846 325.361 67.9726C325.202 67.8512 325.071 67.6739 324.969 67.4406L321.315 59.2366C321.212 59.0032 321.184 58.7979 321.231 58.6206C321.277 58.4432 321.375 58.3032 321.525 58.2006C321.674 58.0979 321.851 58.0466 322.057 58.0466C322.327 58.0466 322.528 58.1072 322.659 58.2286C322.799 58.3406 322.915 58.5132 323.009 58.7466L326.327 66.4326H325.725L329.029 58.7326C329.131 58.5086 329.253 58.3406 329.393 58.2286C329.533 58.1072 329.729 58.0466 329.981 58.0466C330.186 58.0466 330.354 58.0979 330.485 58.2006C330.625 58.3032 330.713 58.4432 330.751 58.6206C330.788 58.7979 330.755 59.0032 330.653 59.2366L326.999 67.4406C326.896 67.6739 326.765 67.8512 326.607 67.9726C326.457 68.0846 326.252 68.1406 325.991 68.1406ZM333.303 68.1686C332.808 68.1686 332.365 68.0752 331.973 67.8886C331.59 67.6926 331.287 67.4312 331.063 67.1046C330.848 66.7779 330.741 66.4092 330.741 65.9986C330.741 65.4946 330.872 65.0979 331.133 64.8086C331.394 64.5099 331.819 64.2952 332.407 64.1646C332.995 64.0339 333.784 63.9686 334.773 63.9686H335.473V64.9766H334.787C334.208 64.9766 333.746 65.0046 333.401 65.0606C333.056 65.1166 332.808 65.2146 332.659 65.3546C332.519 65.4852 332.449 65.6719 332.449 65.9146C332.449 66.2226 332.556 66.4746 332.771 66.6706C332.986 66.8666 333.284 66.9646 333.667 66.9646C333.975 66.9646 334.246 66.8946 334.479 66.7546C334.722 66.6052 334.913 66.4046 335.053 66.1526C335.193 65.9006 335.263 65.6112 335.263 65.2846V63.6746C335.263 63.2079 335.16 62.8719 334.955 62.6666C334.75 62.4612 334.404 62.3586 333.919 62.3586C333.648 62.3586 333.354 62.3912 333.037 62.4566C332.729 62.5219 332.402 62.6339 332.057 62.7926C331.88 62.8766 331.721 62.8999 331.581 62.8626C331.45 62.8252 331.348 62.7506 331.273 62.6386C331.198 62.5172 331.161 62.3866 331.161 62.2466C331.161 62.1066 331.198 61.9712 331.273 61.8406C331.348 61.7006 331.474 61.5979 331.651 61.5326C332.08 61.3552 332.491 61.2292 332.883 61.1546C333.284 61.0799 333.648 61.0426 333.975 61.0426C334.647 61.0426 335.198 61.1452 335.627 61.3506C336.066 61.5559 336.392 61.8686 336.607 62.2886C336.822 62.6992 336.929 63.2312 336.929 63.8846V67.2446C336.929 67.5339 336.859 67.7579 336.719 67.9166C336.579 68.0659 336.378 68.1406 336.117 68.1406C335.856 68.1406 335.65 68.0659 335.501 67.9166C335.361 67.7579 335.291 67.5339 335.291 67.2446V66.5726H335.403C335.338 66.8992 335.207 67.1839 335.011 67.4266C334.824 67.6599 334.586 67.8419 334.297 67.9726C334.008 68.1032 333.676 68.1686 333.303 68.1686ZM341.043 68.1686C340.269 68.1686 339.685 67.9492 339.293 67.5106C338.901 67.0626 338.705 66.4092 338.705 65.5506V58.9286C338.705 58.6392 338.78 58.4199 338.929 58.2706C339.079 58.1212 339.293 58.0466 339.573 58.0466C339.853 58.0466 340.068 58.1212 340.217 58.2706C340.376 58.4199 340.455 58.6392 340.455 58.9286V65.4666C340.455 65.8959 340.544 66.2132 340.721 66.4186C340.908 66.6239 341.169 66.7266 341.505 66.7266C341.58 66.7266 341.65 66.7266 341.715 66.7266C341.781 66.7172 341.846 66.7079 341.911 66.6986C342.042 66.6799 342.131 66.7172 342.177 66.8106C342.224 66.8946 342.247 67.0719 342.247 67.3426C342.247 67.5759 342.201 67.7579 342.107 67.8886C342.014 68.0192 341.86 68.0986 341.645 68.1266C341.552 68.1359 341.454 68.1452 341.351 68.1546C341.249 68.1639 341.146 68.1686 341.043 68.1686ZM344.044 68.1266C343.764 68.1266 343.549 68.0426 343.4 67.8746C343.251 67.7066 343.176 67.4732 343.176 67.1746V62.0366C343.176 61.7286 343.251 61.4952 343.4 61.3366C343.549 61.1686 343.764 61.0846 344.044 61.0846C344.324 61.0846 344.539 61.1686 344.688 61.3366C344.847 61.4952 344.926 61.7286 344.926 62.0366V67.1746C344.926 67.4732 344.851 67.7066 344.702 67.8746C344.553 68.0426 344.333 68.1266 344.044 68.1266ZM344.044 59.7826C343.717 59.7826 343.461 59.7032 343.274 59.5446C343.097 59.3766 343.008 59.1479 343.008 58.8586C343.008 58.5599 343.097 58.3312 343.274 58.1726C343.461 58.0139 343.717 57.9346 344.044 57.9346C344.38 57.9346 344.637 58.0139 344.814 58.1726C344.991 58.3312 345.08 58.5599 345.08 58.8586C345.08 59.1479 344.991 59.3766 344.814 59.5446C344.637 59.7032 344.38 59.7826 344.044 59.7826ZM349.376 68.1686C348.779 68.1686 348.252 68.0239 347.794 67.7346C347.346 67.4452 346.996 67.0346 346.744 66.5026C346.492 65.9612 346.366 65.3266 346.366 64.5986C346.366 63.8612 346.492 63.2312 346.744 62.7086C346.996 62.1766 347.346 61.7659 347.794 61.4766C348.252 61.1872 348.779 61.0426 349.376 61.0426C349.946 61.0426 350.44 61.1826 350.86 61.4626C351.29 61.7426 351.579 62.1112 351.728 62.5686H351.574V58.9286C351.574 58.6392 351.649 58.4199 351.798 58.2706C351.948 58.1212 352.162 58.0466 352.442 58.0466C352.722 58.0466 352.937 58.1212 353.086 58.2706C353.245 58.4199 353.324 58.6392 353.324 58.9286V67.2446C353.324 67.5339 353.25 67.7579 353.1 67.9166C352.951 68.0659 352.736 68.1406 352.456 68.1406C352.176 68.1406 351.962 68.0659 351.812 67.9166C351.663 67.7579 351.588 67.5339 351.588 67.2446V66.1526L351.742 66.5726C351.602 67.0579 351.318 67.4452 350.888 67.7346C350.459 68.0239 349.955 68.1686 349.376 68.1686ZM349.866 66.8386C350.212 66.8386 350.515 66.7546 350.776 66.5866C351.038 66.4186 351.238 66.1712 351.378 65.8446C351.528 65.5086 351.602 65.0932 351.602 64.5986C351.602 63.8519 351.444 63.2966 351.126 62.9326C350.809 62.5592 350.389 62.3726 349.866 62.3726C349.521 62.3726 349.218 62.4566 348.956 62.6246C348.695 62.7832 348.49 63.0306 348.34 63.3666C348.2 63.6932 348.13 64.1039 348.13 64.5986C348.13 65.3359 348.289 65.8959 348.606 66.2786C348.924 66.6519 349.344 66.8386 349.866 66.8386ZM357.393 68.1686C356.898 68.1686 356.455 68.0752 356.063 67.8886C355.68 67.6926 355.377 67.4312 355.153 67.1046C354.938 66.7779 354.831 66.4092 354.831 65.9986C354.831 65.4946 354.962 65.0979 355.223 64.8086C355.484 64.5099 355.909 64.2952 356.497 64.1646C357.085 64.0339 357.874 63.9686 358.863 63.9686H359.563V64.9766H358.877C358.298 64.9766 357.836 65.0046 357.491 65.0606C357.146 65.1166 356.898 65.2146 356.749 65.3546C356.609 65.4852 356.539 65.6719 356.539 65.9146C356.539 66.2226 356.646 66.4746 356.861 66.6706C357.076 66.8666 357.374 66.9646 357.757 66.9646C358.065 66.9646 358.336 66.8946 358.569 66.7546C358.812 66.6052 359.003 66.4046 359.143 66.1526C359.283 65.9006 359.353 65.6112 359.353 65.2846V63.6746C359.353 63.2079 359.25 62.8719 359.045 62.6666C358.84 62.4612 358.494 62.3586 358.009 62.3586C357.738 62.3586 357.444 62.3912 357.127 62.4566C356.819 62.5219 356.492 62.6339 356.147 62.7926C355.97 62.8766 355.811 62.8999 355.671 62.8626C355.54 62.8252 355.438 62.7506 355.363 62.6386C355.288 62.5172 355.251 62.3866 355.251 62.2466C355.251 62.1066 355.288 61.9712 355.363 61.8406C355.438 61.7006 355.564 61.5979 355.741 61.5326C356.17 61.3552 356.581 61.2292 356.973 61.1546C357.374 61.0799 357.738 61.0426 358.065 61.0426C358.737 61.0426 359.288 61.1452 359.717 61.3506C360.156 61.5559 360.482 61.8686 360.697 62.2886C360.912 62.6992 361.019 63.2312 361.019 63.8846V67.2446C361.019 67.5339 360.949 67.7579 360.809 67.9166C360.669 68.0659 360.468 68.1406 360.207 68.1406C359.946 68.1406 359.74 68.0659 359.591 67.9166C359.451 67.7579 359.381 67.5339 359.381 67.2446V66.5726H359.493C359.428 66.8992 359.297 67.1839 359.101 67.4266C358.914 67.6599 358.676 67.8419 358.387 67.9726C358.098 68.1032 357.766 68.1686 357.393 68.1686ZM365.931 68.1686C365.325 68.1686 364.816 68.0659 364.405 67.8606C364.004 67.6552 363.705 67.3566 363.509 66.9646C363.313 66.5632 363.215 66.0686 363.215 65.4806V62.4986H362.487C362.263 62.4986 362.091 62.4426 361.969 62.3306C361.848 62.2092 361.787 62.0459 361.787 61.8406C361.787 61.6259 361.848 61.4626 361.969 61.3506C362.091 61.2386 362.263 61.1826 362.487 61.1826H363.215V59.9086C363.215 59.6192 363.29 59.3999 363.439 59.2506C363.598 59.1012 363.817 59.0266 364.097 59.0266C364.377 59.0266 364.592 59.1012 364.741 59.2506C364.891 59.3999 364.965 59.6192 364.965 59.9086V61.1826H366.449C366.673 61.1826 366.846 61.2386 366.967 61.3506C367.089 61.4626 367.149 61.6259 367.149 61.8406C367.149 62.0459 367.089 62.2092 366.967 62.3306C366.846 62.4426 366.673 62.4986 366.449 62.4986H364.965V65.3826C364.965 65.8306 365.063 66.1666 365.259 66.3906C365.455 66.6146 365.773 66.7266 366.211 66.7266C366.37 66.7266 366.51 66.7126 366.631 66.6846C366.753 66.6566 366.86 66.6379 366.953 66.6286C367.065 66.6192 367.159 66.6566 367.233 66.7406C367.308 66.8152 367.345 66.9739 367.345 67.2166C367.345 67.4032 367.313 67.5712 367.247 67.7206C367.191 67.8606 367.084 67.9586 366.925 68.0146C366.804 68.0519 366.645 68.0846 366.449 68.1126C366.253 68.1499 366.081 68.1686 365.931 68.1686ZM369.214 68.1266C368.934 68.1266 368.719 68.0426 368.57 67.8746C368.421 67.7066 368.346 67.4732 368.346 67.1746V62.0366C368.346 61.7286 368.421 61.4952 368.57 61.3366C368.719 61.1686 368.934 61.0846 369.214 61.0846C369.494 61.0846 369.709 61.1686 369.858 61.3366C370.017 61.4952 370.096 61.7286 370.096 62.0366V67.1746C370.096 67.4732 370.021 67.7066 369.872 67.8746C369.723 68.0426 369.503 68.1266 369.214 68.1266ZM369.214 59.7826C368.887 59.7826 368.631 59.7032 368.444 59.5446C368.267 59.3766 368.178 59.1479 368.178 58.8586C368.178 58.5599 368.267 58.3312 368.444 58.1726C368.631 58.0139 368.887 57.9346 369.214 57.9346C369.55 57.9346 369.807 58.0139 369.984 58.1726C370.161 58.3312 370.25 58.5599 370.25 58.8586C370.25 59.1479 370.161 59.3766 369.984 59.5446C369.807 59.7032 369.55 59.7826 369.214 59.7826ZM375.036 68.1686C374.327 68.1686 373.711 68.0239 373.188 67.7346C372.666 67.4452 372.26 67.0346 371.97 66.5026C371.681 65.9612 371.536 65.3266 371.536 64.5986C371.536 64.0479 371.616 63.5579 371.774 63.1286C371.942 62.6899 372.18 62.3166 372.488 62.0086C372.796 61.6912 373.165 61.4532 373.594 61.2946C374.024 61.1266 374.504 61.0426 375.036 61.0426C375.746 61.0426 376.362 61.1872 376.884 61.4766C377.407 61.7659 377.813 62.1766 378.102 62.7086C378.392 63.2406 378.536 63.8706 378.536 64.5986C378.536 65.1492 378.452 65.6439 378.284 66.0826C378.126 66.5212 377.892 66.8992 377.584 67.2166C377.276 67.5246 376.908 67.7626 376.478 67.9306C376.049 68.0892 375.568 68.1686 375.036 68.1686ZM375.036 66.8386C375.382 66.8386 375.685 66.7546 375.946 66.5866C376.208 66.4186 376.408 66.1712 376.548 65.8446C376.698 65.5086 376.772 65.0932 376.772 64.5986C376.772 63.8519 376.614 63.2966 376.296 62.9326C375.979 62.5592 375.559 62.3726 375.036 62.3726C374.691 62.3726 374.388 62.4566 374.126 62.6246C373.865 62.7832 373.66 63.0306 373.51 63.3666C373.37 63.6932 373.3 64.1039 373.3 64.5986C373.3 65.3359 373.459 65.8959 373.776 66.2786C374.094 66.6519 374.514 66.8386 375.036 66.8386ZM380.849 68.1406C380.569 68.1406 380.354 68.0659 380.205 67.9166C380.055 67.7579 379.981 67.5339 379.981 67.2446V61.9526C379.981 61.6632 380.055 61.4439 380.205 61.2946C380.354 61.1452 380.564 61.0706 380.835 61.0706C381.105 61.0706 381.315 61.1452 381.465 61.2946C381.614 61.4439 381.689 61.6632 381.689 61.9526V62.9046L381.535 62.5546C381.74 62.0599 382.057 61.6866 382.487 61.4346C382.925 61.1732 383.42 61.0426 383.971 61.0426C384.521 61.0426 384.974 61.1452 385.329 61.3506C385.683 61.5559 385.949 61.8686 386.127 62.2886C386.304 62.6992 386.393 63.2219 386.393 63.8566V67.2446C386.393 67.5339 386.318 67.7579 386.169 67.9166C386.019 68.0659 385.805 68.1406 385.525 68.1406C385.245 68.1406 385.025 68.0659 384.867 67.9166C384.717 67.7579 384.643 67.5339 384.643 67.2446V63.9406C384.643 63.4086 384.54 63.0212 384.335 62.7786C384.139 62.5359 383.831 62.4146 383.411 62.4146C382.897 62.4146 382.487 62.5779 382.179 62.9046C381.88 63.2219 381.731 63.6466 381.731 64.1786V67.2446C381.731 67.8419 381.437 68.1406 380.849 68.1406Z" fill="#0D6098"/>
<path d="M167.506 68.1406C167.216 68.1406 166.992 68.0612 166.834 67.9026C166.684 67.7346 166.61 67.5059 166.61 67.2166V59.0686C166.61 58.7699 166.689 58.5459 166.848 58.3966C167.006 58.2379 167.23 58.1586 167.52 58.1586H170.894C171.976 58.1586 172.812 58.4292 173.4 58.9706C173.988 59.5119 174.282 60.2679 174.282 61.2386C174.282 62.2092 173.988 62.9699 173.4 63.5206C172.812 64.0619 171.976 64.3326 170.894 64.3326H168.402V67.2166C168.402 67.5059 168.327 67.7346 168.178 67.9026C168.028 68.0612 167.804 68.1406 167.506 68.1406ZM168.402 62.9186H170.614C171.248 62.9186 171.729 62.7786 172.056 62.4986C172.382 62.2092 172.546 61.7892 172.546 61.2386C172.546 60.6879 172.382 60.2726 172.056 59.9926C171.729 59.7126 171.248 59.5726 170.614 59.5726H168.402V62.9186ZM177.5 68.1686C177.006 68.1686 176.562 68.0752 176.17 67.8886C175.788 67.6926 175.484 67.4312 175.26 67.1046C175.046 66.7779 174.938 66.4092 174.938 65.9986C174.938 65.4946 175.069 65.0979 175.33 64.8086C175.592 64.5099 176.016 64.2952 176.604 64.1646C177.192 64.0339 177.981 63.9686 178.97 63.9686H179.67V64.9766H178.984C178.406 64.9766 177.944 65.0046 177.598 65.0606C177.253 65.1166 177.006 65.2146 176.856 65.3546C176.716 65.4852 176.646 65.6719 176.646 65.9146C176.646 66.2226 176.754 66.4746 176.968 66.6706C177.183 66.8666 177.482 66.9646 177.864 66.9646C178.172 66.9646 178.443 66.8946 178.676 66.7546C178.919 66.6052 179.11 66.4046 179.25 66.1526C179.39 65.9006 179.46 65.6112 179.46 65.2846V63.6746C179.46 63.2079 179.358 62.8719 179.152 62.6666C178.947 62.4612 178.602 62.3586 178.116 62.3586C177.846 62.3586 177.552 62.3912 177.234 62.4566C176.926 62.5219 176.6 62.6339 176.254 62.7926C176.077 62.8766 175.918 62.8999 175.778 62.8626C175.648 62.8252 175.545 62.7506 175.47 62.6386C175.396 62.5172 175.358 62.3866 175.358 62.2466C175.358 62.1066 175.396 61.9712 175.47 61.8406C175.545 61.7006 175.671 61.5979 175.848 61.5326C176.278 61.3552 176.688 61.2292 177.08 61.1546C177.482 61.0799 177.846 61.0426 178.172 61.0426C178.844 61.0426 179.395 61.1452 179.824 61.3506C180.263 61.5559 180.59 61.8686 180.804 62.2886C181.019 62.6992 181.126 63.2312 181.126 63.8846V67.2446C181.126 67.5339 181.056 67.7579 180.916 67.9166C180.776 68.0659 180.576 68.1406 180.314 68.1406C180.053 68.1406 179.848 68.0659 179.698 67.9166C179.558 67.7579 179.488 67.5339 179.488 67.2446V66.5726H179.6C179.535 66.8992 179.404 67.1839 179.208 67.4266C179.022 67.6599 178.784 67.8419 178.494 67.9726C178.205 68.1032 177.874 68.1686 177.5 68.1686ZM184.57 70.6606C184.365 70.6606 184.197 70.6046 184.066 70.4926C183.936 70.3899 183.856 70.2499 183.828 70.0726C183.81 69.8952 183.842 69.7086 183.926 69.5126L184.878 67.3986V68.1266L182.33 62.2326C182.246 62.0272 182.218 61.8359 182.246 61.6586C182.274 61.4812 182.358 61.3412 182.498 61.2386C182.648 61.1266 182.848 61.0706 183.1 61.0706C183.315 61.0706 183.488 61.1219 183.618 61.2246C183.749 61.3179 183.866 61.4999 183.968 61.7706L185.858 66.4886H185.438L187.37 61.7566C187.473 61.4952 187.594 61.3179 187.734 61.2246C187.874 61.1219 188.061 61.0706 188.294 61.0706C188.5 61.0706 188.663 61.1266 188.784 61.2386C188.906 61.3412 188.98 61.4812 189.008 61.6586C189.036 61.8266 189.004 62.0132 188.91 62.2186L185.508 69.9886C185.387 70.2499 185.256 70.4272 185.116 70.5206C184.976 70.6139 184.794 70.6606 184.57 70.6606ZM191.099 68.1406C190.819 68.1406 190.605 68.0659 190.455 67.9166C190.306 67.7579 190.231 67.5339 190.231 67.2446V61.9526C190.231 61.6632 190.306 61.4439 190.455 61.2946C190.605 61.1452 190.815 61.0706 191.085 61.0706C191.356 61.0706 191.566 61.1452 191.715 61.2946C191.865 61.4439 191.939 61.6632 191.939 61.9526V62.9746L191.785 62.5546C191.972 62.0879 192.261 61.7192 192.653 61.4486C193.045 61.1779 193.512 61.0426 194.053 61.0426C194.604 61.0426 195.057 61.1732 195.411 61.4346C195.766 61.6959 196.013 62.0972 196.153 62.6386H195.957C196.144 62.1439 196.452 61.7566 196.881 61.4766C197.311 61.1872 197.805 61.0426 198.365 61.0426C198.888 61.0426 199.317 61.1452 199.653 61.3506C199.999 61.5559 200.255 61.8686 200.423 62.2886C200.591 62.6992 200.675 63.2219 200.675 63.8566V67.2446C200.675 67.5339 200.596 67.7579 200.437 67.9166C200.288 68.0659 200.073 68.1406 199.793 68.1406C199.513 68.1406 199.299 68.0659 199.149 67.9166C199 67.7579 198.925 67.5339 198.925 67.2446V63.9266C198.925 63.4039 198.837 63.0212 198.659 62.7786C198.491 62.5359 198.202 62.4146 197.791 62.4146C197.334 62.4146 196.975 62.5779 196.713 62.9046C196.452 63.2219 196.321 63.6652 196.321 64.2346V67.2446C196.321 67.5339 196.247 67.7579 196.097 67.9166C195.948 68.0659 195.733 68.1406 195.453 68.1406C195.173 68.1406 194.954 68.0659 194.795 67.9166C194.646 67.7579 194.571 67.5339 194.571 67.2446V63.9266C194.571 63.4039 194.483 63.0212 194.305 62.7786C194.137 62.5359 193.853 62.4146 193.451 62.4146C192.994 62.4146 192.635 62.5779 192.373 62.9046C192.112 63.2219 191.981 63.6652 191.981 64.2346V67.2446C191.981 67.8419 191.687 68.1406 191.099 68.1406ZM205.855 68.1686C205.08 68.1686 204.413 68.0239 203.853 67.7346C203.293 67.4452 202.859 67.0346 202.551 66.5026C202.252 65.9706 202.103 65.3406 202.103 64.6126C202.103 63.9032 202.247 63.2826 202.537 62.7506C202.835 62.2186 203.241 61.8032 203.755 61.5046C204.277 61.1966 204.87 61.0426 205.533 61.0426C206.018 61.0426 206.452 61.1219 206.835 61.2806C207.227 61.4392 207.558 61.6679 207.829 61.9666C208.109 62.2652 208.319 62.6292 208.459 63.0586C208.608 63.4786 208.683 63.9546 208.683 64.4866C208.683 64.6546 208.622 64.7852 208.501 64.8786C208.389 64.9626 208.225 65.0046 208.011 65.0046H203.517V63.9966H207.451L207.227 64.2066C207.227 63.7772 207.161 63.4179 207.031 63.1286C206.909 62.8392 206.727 62.6199 206.485 62.4706C206.251 62.3119 205.957 62.2326 205.603 62.2326C205.211 62.2326 204.875 62.3259 204.595 62.5126C204.324 62.6899 204.114 62.9466 203.965 63.2826C203.825 63.6092 203.755 64.0012 203.755 64.4586V64.5566C203.755 65.3219 203.932 65.8959 204.287 66.2786C204.651 66.6519 205.183 66.8386 205.883 66.8386C206.125 66.8386 206.396 66.8106 206.695 66.7546C207.003 66.6892 207.292 66.5819 207.563 66.4326C207.759 66.3206 207.931 66.2739 208.081 66.2926C208.23 66.3019 208.347 66.3532 208.431 66.4466C208.524 66.5399 208.58 66.6566 208.599 66.7966C208.617 66.9272 208.589 67.0626 208.515 67.2026C208.449 67.3426 208.333 67.4639 208.165 67.5666C207.838 67.7719 207.46 67.9259 207.031 68.0286C206.611 68.1219 206.219 68.1686 205.855 68.1686ZM210.937 68.1406C210.657 68.1406 210.442 68.0659 210.293 67.9166C210.143 67.7579 210.069 67.5339 210.069 67.2446V61.9526C210.069 61.6632 210.143 61.4439 210.293 61.2946C210.442 61.1452 210.652 61.0706 210.923 61.0706C211.193 61.0706 211.403 61.1452 211.553 61.2946C211.702 61.4439 211.777 61.6632 211.777 61.9526V62.9046L211.623 62.5546C211.828 62.0599 212.145 61.6866 212.575 61.4346C213.013 61.1732 213.508 61.0426 214.059 61.0426C214.609 61.0426 215.062 61.1452 215.417 61.3506C215.771 61.5559 216.037 61.8686 216.215 62.2886C216.392 62.6992 216.481 63.2219 216.481 63.8566V67.2446C216.481 67.5339 216.406 67.7579 216.257 67.9166C216.107 68.0659 215.893 68.1406 215.613 68.1406C215.333 68.1406 215.113 68.0659 214.955 67.9166C214.805 67.7579 214.731 67.5339 214.731 67.2446V63.9406C214.731 63.4086 214.628 63.0212 214.423 62.7786C214.227 62.5359 213.919 62.4146 213.499 62.4146C212.985 62.4146 212.575 62.5779 212.267 62.9046C211.968 63.2219 211.819 63.6466 211.819 64.1786V67.2446C211.819 67.8419 211.525 68.1406 210.937 68.1406ZM221.394 68.1686C220.787 68.1686 220.279 68.0659 219.868 67.8606C219.467 67.6552 219.168 67.3566 218.972 66.9646C218.776 66.5632 218.678 66.0686 218.678 65.4806V62.4986H217.95C217.726 62.4986 217.553 62.4426 217.432 62.3306C217.311 62.2092 217.25 62.0459 217.25 61.8406C217.25 61.6259 217.311 61.4626 217.432 61.3506C217.553 61.2386 217.726 61.1826 217.95 61.1826H218.678V59.9086C218.678 59.6192 218.753 59.3999 218.902 59.2506C219.061 59.1012 219.28 59.0266 219.56 59.0266C219.84 59.0266 220.055 59.1012 220.204 59.2506C220.353 59.3999 220.428 59.6192 220.428 59.9086V61.1826H221.912C222.136 61.1826 222.309 61.2386 222.43 61.3506C222.551 61.4626 222.612 61.6259 222.612 61.8406C222.612 62.0459 222.551 62.2092 222.43 62.3306C222.309 62.4426 222.136 62.4986 221.912 62.4986H220.428V65.3826C220.428 65.8306 220.526 66.1666 220.722 66.3906C220.918 66.6146 221.235 66.7266 221.674 66.7266C221.833 66.7266 221.973 66.7126 222.094 66.6846C222.215 66.6566 222.323 66.6379 222.416 66.6286C222.528 66.6192 222.621 66.6566 222.696 66.7406C222.771 66.8152 222.808 66.9739 222.808 67.2166C222.808 67.4032 222.775 67.5712 222.71 67.7206C222.654 67.8606 222.547 67.9586 222.388 68.0146C222.267 68.0519 222.108 68.0846 221.912 68.1126C221.716 68.1499 221.543 68.1686 221.394 68.1686Z" fill="#0D6098"/>
<path d="M69.2095 20.9714H156.755" stroke="#0D6098"/>
<path d="M233.081 20.9714H320.626" stroke="#0D6098"/>
<path d="M35.6265 17.038L26.7122 25.9523L22.6265 21.8666L23.6739 20.8192L26.7122 23.85L34.579 15.9906L35.6265 17.038Z" fill="#0D6098"/>
</svg>
