<svg width="29" height="28" viewBox="0 0 29 28" fill="none" xmlns="http://www.w3.org/2000/svg">
<path d="M26.1362 11.7151H25.1965V11.6667H14.6965V16.3334H21.2899C20.328 19.05 17.7432 21 14.6965 21C10.8307 21 7.69645 17.8658 7.69645 14C7.69645 10.1343 10.8307 7.00004 14.6965 7.00004C16.4809 7.00004 18.1043 7.67321 19.3404 8.77279L22.6403 5.47287C20.5566 3.53096 17.7695 2.33337 14.6965 2.33337C8.25353 2.33337 3.02979 7.55712 3.02979 14C3.02979 20.443 8.25353 25.6667 14.6965 25.6667C21.1394 25.6667 26.3631 20.443 26.3631 14C26.3631 13.2178 26.2826 12.4542 26.1362 11.7151Z" fill="#FFC107"/>
<path d="M4.375 8.56979L8.20808 11.3809C9.24525 8.81304 11.7571 7.00004 14.6965 7.00004C16.4809 7.00004 18.1043 7.67321 19.3404 8.77279L22.6403 5.47287C20.5567 3.53096 17.7695 2.33337 14.6965 2.33337C10.2153 2.33337 6.32917 4.86329 4.375 8.56979Z" fill="#FF3D00"/>
<path d="M14.6963 25.6667C17.7098 25.6667 20.448 24.5134 22.5182 22.638L18.9074 19.5825C17.6967 20.5033 16.2173 21.0012 14.6963 21C11.6618 21 9.08523 19.0651 8.11456 16.3649L4.31006 19.2961C6.24089 23.0744 10.1621 25.6667 14.6963 25.6667Z" fill="#4CAF50"/>
<path d="M26.136 11.715H25.1963V11.6666H14.6963V16.3333H21.2897C20.8296 17.6262 20.0007 18.756 18.9056 19.583L18.9074 19.5819L22.5182 22.6374C22.2627 22.8695 26.363 19.8333 26.363 14C26.363 13.2177 26.2825 12.4541 26.136 11.715Z" fill="#1976D2"/>
</svg>
